M48
; DRILL file {KiCad 8.0.4} date 2024-09-06T17:25:08+0200
; FORMAT={-:-/ absolute / inch / decimal}
; #@! TF.CreationDate,2024-09-06T17:25:08+02:00
; #@! TF.GenerationSoftware,Kicad,Pcbnew,8.0.4
; #@! TF.FileFunction,Plated,1,2,PTH
FMAT,2
INCH
; #@! TA.AperFunction,Plated,PTH,ViaDrill
T1C0.0157
; #@! TA.AperFunction,Plated,PTH,ComponentDrill
T2C0.0236
; #@! TA.AperFunction,Plated,PTH,ComponentDrill
T3C0.1181
; #@! TA.AperFunction,Plated,PTH,ComponentDrill
T4C0.1200
%
G90
G05
T1
X1.5959Y-2.2566
X1.6514Y-2.3261
X1.6765Y-3.8528
X1.7185Y-3.7229
X1.7209Y-2.3816
X1.7522Y-3.6316
X1.8147Y-3.4753
X1.8171Y-3.5691
X1.9022Y-3.641
X1.9023Y-3.6005
X1.9397Y-3.5691
X2.0412Y-3.5613
X2.0647Y-3.6699
X2.0959Y-3.5534
X2.1897Y-2.3347
X2.3303Y-3.7409
X2.4709Y-2.6628
X2.4709Y-4.9128
X2.5022Y-3.6472
X3.2209Y-2.6628
X3.2522Y-3.6472
X3.3147Y-4.5098
X3.4084Y-4.9128
X3.9709Y-2.6628
X4.0022Y-3.6472
X4.0491Y-2.3347
X4.1897Y-3.7409
X4.7209Y-2.6628
X4.7366Y-3.6472
X4.9084Y-3.4128
X5.4709Y-2.6628
X5.5022Y-3.6472
X5.6584Y-3.4128
X5.8928Y-2.3347
X5.9241Y-3.7409
X6.2209Y-2.6628
X6.2522Y-3.6472
X6.4084Y-3.4128
X6.9709Y-2.6628
X7.0022Y-3.6472
X7.1584Y-3.4128
X7.7209Y-2.6628
X7.7522Y-3.6472
X7.7834Y-2.3347
X7.7834Y-3.7409
X8.4709Y-2.6628
X8.5022Y-3.6472
X8.8459Y-1.9128
X9.2209Y-2.6628
X9.2522Y-3.6472
X9.5959Y-1.9128
X9.9709Y-2.6628
X10.0647Y-3.6628
X10.3459Y-1.9128
X10.7209Y-2.6628
X10.7522Y-3.7409
X10.8459Y-4.3799
X10.8928Y-4.3208
X10.9241Y-4.2895
X10.9553Y-4.259
X11.1116Y-4.3799
X11.1741Y-4.3191
X11.2036Y-4.2895
X11.2366Y-4.259
X11.4397Y-1.962
X11.4397Y-2.0041
X11.4397Y-2.0708
X11.4397Y-2.134
X11.5022Y-2.8208
X11.5022Y-2.8799
X11.5334Y-2.7919
X11.5539Y-1.0715
X11.5647Y-2.759
X11.6272Y-2.3311
X11.6272Y-3.7409
X11.6304Y-1.4561
X11.6741Y-1.1941
X11.6741Y-3.1251
X11.7053Y-1.7504
X11.7415Y-3.0981
X11.7991Y-3.6941
X11.8147Y-1.9335
X11.8303Y-1.2409
X11.8379Y-1.1023
X11.8477Y-0.9153
X11.8605Y-1.2724
X11.8772Y-3.7409
X11.8911Y-4.5083
X11.8928Y-4.4597
X11.8928Y-4.5674
X11.9335Y-1.5222
X11.9553Y-1.3191
X11.965Y-1.45
X11.965Y-1.8972
X11.965Y-2.4909
X11.9658Y-1.1023
X11.9758Y-2.7536
X11.9758Y-3.1918
X11.9866Y-4.4284
X11.9953Y-1.0039
X12.0056Y-1.3346
X12.0161Y-1.4592
X12.0161Y-1.8972
X12.0429Y-3.2589
X12.0491Y-3.8897
X12.0491Y-3.9291
X12.0491Y-3.9684
X12.0491Y-4.0078
X12.0585Y-3.506
X12.0585Y-3.5453
X12.0585Y-3.5847
X12.0585Y-3.6316
X12.0585Y-4.2253
X12.0647Y-1.3972
X12.0647Y-1.6159
X12.0647Y-3.0222
X12.0741Y-1.0039
X12.0959Y-4.4284
X12.0975Y-1.8675
X12.117Y-3.1456
X12.126Y-1.8401
X12.1428Y-1.1784
X12.1455Y-3.1741
X12.1584Y-0.8347
X12.1741Y-3.4753
X12.1925Y-2.9752
X12.2026Y-3.2124
X12.2209Y-2.6457
X12.2209Y-2.7878
X12.2209Y-3.0464
X12.2311Y-3.1846
X12.2524Y-3.509
X12.2524Y-3.5484
X12.2524Y-3.5878
X12.2524Y-3.6316
X12.2597Y-3.2124
X12.2711Y-1.1192
X12.2801Y-2.6818
X12.281Y-2.7434
X12.2818Y-2.7928
X12.2909Y-3.1883
X12.2991Y-4.1628
X12.3147Y-4.2854
X12.3147Y-4.3503
X12.3171Y-4.4153
X12.3359Y-0.9753
X12.3459Y-2.0708
X12.3459Y-2.1299
X12.3459Y-2.1784
X12.357Y-1.962
X12.3928Y-3.4753
X12.4084Y-4.2253
X12.5178Y-1.0691
X12.5311Y-1.4753
X12.5959Y-3.8347
T3
X0.8209Y-0.8753
X0.8209Y-1.8128
X0.8652Y-3.3128
X0.9147Y-4.0628
X0.9147Y-4.8128
X0.9652Y-3.5628
X1.0084Y-2.5628
X1.0709Y-0.7753
X1.0709Y-1.7128
X1.1647Y-3.9628
X1.1647Y-4.7128
X1.2584Y-2.4628
X1.3522Y-3.2628
X1.4522Y-3.5128
X1.5709Y-1.8128
X1.7584Y-0.8753
X1.7584Y-4.0628
X1.8209Y-1.7128
X1.8522Y-4.8128
X1.9459Y-2.5628
X2.0084Y-0.7753
X2.0084Y-3.9628
X2.1022Y-4.7128
X2.1334Y-3.3128
X2.1959Y-2.4628
X2.3209Y-1.8128
X2.3834Y-3.2128
X2.5084Y-0.8753
X2.5084Y-4.0628
X2.5709Y-1.7128
X2.6959Y-2.5628
X2.7584Y-0.7753
X2.7584Y-3.9628
X2.7897Y-4.8128
X2.8834Y-3.3128
X2.9459Y-2.4628
X3.0397Y-4.7128
X3.0709Y-1.8128
X3.1334Y-3.2128
X3.2584Y-0.8753
X3.2584Y-4.0628
X3.3209Y-1.7128
X3.4459Y-2.5628
X3.5084Y-0.7753
X3.5084Y-3.9628
X3.6334Y-3.3128
X3.6959Y-2.4628
X3.8209Y-1.8128
X3.8834Y-3.2128
X4.0084Y-0.8753
X4.0084Y-4.0628
X4.0084Y-4.8128
X4.0709Y-1.7128
X4.1959Y-2.5628
X4.2584Y-0.7753
X4.2584Y-3.9628
X4.2584Y-4.7128
X4.3834Y-3.3128
X4.4459Y-2.4628
X4.5709Y-1.8128
X4.6334Y-3.2128
X4.7584Y-0.8753
X4.7584Y-4.0628
X4.8209Y-1.7128
X4.9459Y-2.5628
X5.0084Y-0.7753
X5.0084Y-3.9628
X5.1334Y-3.3128
X5.1959Y-2.4628
X5.3209Y-1.8128
X5.3834Y-3.2128
X5.5084Y-0.8753
X5.5084Y-4.0628
X5.5709Y-1.7128
X5.6022Y-4.8128
X5.6959Y-2.5628
X5.7584Y-0.7753
X5.7584Y-3.9628
X5.8522Y-4.7128
X5.8834Y-3.3128
X5.9459Y-2.4628
X6.0709Y-1.8128
X6.1334Y-3.2128
X6.2584Y-4.0628
X6.3209Y-1.7128
X6.4459Y-0.8753
X6.4459Y-2.5628
X6.5084Y-3.9628
X6.6334Y-3.3128
X6.6959Y-0.7753
X6.6959Y-2.4628
X6.8209Y-1.8128
X6.8834Y-3.2128
X7.0084Y-4.0628
X7.0709Y-1.7128
X7.1959Y-0.8753
X7.1959Y-2.5628
X7.1959Y-4.8128
X7.2584Y-3.9628
X7.3834Y-3.3128
X7.4459Y-0.7753
X7.4459Y-2.4628
X7.4459Y-4.7128
X7.5709Y-1.8128
X7.6334Y-3.2128
X7.7584Y-4.0628
X7.8209Y-1.7128
X7.9459Y-0.8753
X7.9459Y-2.5628
X8.0084Y-3.9628
X8.1334Y-3.3128
X8.1959Y-0.7753
X8.1959Y-2.4628
X8.3209Y-1.8128
X8.3209Y-4.8128
X8.3834Y-3.2128
X8.5084Y-4.0628
X8.5709Y-1.7128
X8.5709Y-4.7128
X8.6959Y-0.8753
X8.6959Y-2.5628
X8.7584Y-3.9628
X8.8834Y-3.3128
X8.9459Y-0.7753
X8.9459Y-2.4628
X9.0709Y-1.8128
X9.0709Y-4.8128
X9.1334Y-3.2128
X9.2584Y-4.0628
X9.3209Y-1.7128
X9.3209Y-4.7128
X9.4459Y-0.8753
X9.4459Y-2.5628
X9.5084Y-3.9628
X9.6334Y-3.3128
X9.6959Y-0.7753
X9.6959Y-2.4628
X9.8209Y-1.8128
X9.8209Y-4.8128
X9.8834Y-3.2128
X10.0709Y-1.7128
X10.0709Y-4.7128
X10.1959Y-0.8753
X10.1959Y-2.5628
X10.2897Y-4.0628
X10.4459Y-0.7753
X10.4459Y-2.4628
X10.5397Y-3.9628
X10.7584Y-5.0003
X10.8522Y-3.3128
X10.9459Y-1.8128
X11.0084Y-4.9003
X11.1022Y-3.2128
X11.1334Y-0.8753
X11.1334Y-2.5628
X11.1959Y-1.7128
X11.3834Y-0.7753
X11.3834Y-2.4628
X11.5084Y-4.2503
X11.5084Y-5.0003
X11.7584Y-4.1503
X11.7584Y-4.9003
X12.2584Y-5.0003
X12.4459Y-0.8753
X12.4459Y-1.8128
X12.4459Y-2.5628
X12.4459Y-3.3128
X12.4459Y-4.0628
X12.5084Y-4.9003
X12.6959Y-0.7753
X12.6959Y-1.7128
X12.6959Y-2.4628
X12.6959Y-3.2128
X12.6959Y-3.9628
T4
X3.6897Y-4.6378
X3.7834Y-4.6378
X4.6272Y-4.6378
X5.2834Y-4.6378
X6.2209Y-4.6378
X6.8772Y-4.6378
X7.7209Y-4.6378
X7.8147Y-4.6378
X10.5334Y-3.1378
X10.6272Y-1.6378
X11.4709Y-3.1378
X11.5647Y-1.6378
T2
G00X11.7265Y-0.6364
M15
G01X11.7265Y-0.66
M16
G05
G00X11.7265Y-0.7911
M15
G01X11.7265Y-0.8344
M16
G05
G00X12.0666Y-0.6364
M15
G01X12.0666Y-0.66
M16
G05
G00X12.0666Y-0.7911
M15
G01X12.0666Y-0.8344
M16
G05
M30
