M48
; DRILL file {KiCad 8.0.4} date 2024-09-06T17:25:08+0200
; FORMAT={-:-/ absolute / inch / decimal}
; #@! TF.CreationDate,2024-09-06T17:25:08+02:00
; #@! TF.GenerationSoftware,Kicad,Pcbnew,8.0.4
; #@! TF.FileFunction,NonPlated,1,2,NPTH
FMAT,2
INCH
; #@! TA.AperFunction,NonPlated,NPTH,ComponentDrill
T1C0.0256
; #@! TA.AperFunction,NonPlated,NPTH,ComponentDrill
T2C0.0689
; #@! TA.AperFunction,NonPlated,NPTH,ComponentDrill
T3C0.1570
%
G90
G05
T1
X11.7828Y-0.7919
X12.0103Y-0.7919
T2
X0.7709Y-0.9753
X0.7709Y-1.9128
X0.8647Y-4.1628
X0.8647Y-4.9128
X0.9584Y-2.6628
X1.0652Y-3.2128
X1.0652Y-3.6128
X1.1709Y-0.9753
X1.1709Y-1.9128
X1.2522Y-3.2128
X1.2522Y-3.6128
X1.2647Y-4.1628
X1.2647Y-4.9128
X1.3584Y-2.6628
X1.5209Y-1.9128
X1.7084Y-0.9753
X1.7084Y-4.1628
X1.8022Y-4.9128
X1.8959Y-2.6628
X1.9209Y-1.9128
X2.0834Y-3.4128
X2.1084Y-0.9753
X2.1084Y-4.1628
X2.2022Y-4.9128
X2.2709Y-1.9128
X2.2959Y-2.6628
X2.4584Y-0.9753
X2.4584Y-4.1628
X2.4834Y-3.4128
X2.6459Y-2.6628
X2.6709Y-1.9128
X2.7397Y-4.9128
X2.8334Y-3.4128
X2.8584Y-0.9753
X2.8584Y-4.1628
X3.0209Y-1.9128
X3.0459Y-2.6628
X3.1397Y-4.9128
X3.2084Y-0.9753
X3.2084Y-4.1628
X3.2334Y-3.4128
X3.3959Y-2.6628
X3.4209Y-1.9128
X3.5834Y-3.4128
X3.6084Y-0.9753
X3.6084Y-4.1628
X3.7709Y-1.9128
X3.7959Y-2.6628
X3.9584Y-0.9753
X3.9584Y-4.1628
X3.9584Y-4.9128
X3.9834Y-3.4128
X4.1459Y-2.6628
X4.1709Y-1.9128
X4.3334Y-3.4128
X4.3584Y-0.9753
X4.3584Y-4.1628
X4.3584Y-4.9128
X4.5209Y-1.9128
X4.5459Y-2.6628
X4.7084Y-0.9753
X4.7084Y-4.1628
X4.7334Y-3.4128
X4.8959Y-2.6628
X4.9209Y-1.9128
X5.0834Y-3.4128
X5.1084Y-0.9753
X5.1084Y-4.1628
X5.2709Y-1.9128
X5.2959Y-2.6628
X5.4584Y-0.9753
X5.4584Y-4.1628
X5.4834Y-3.4128
X5.5522Y-4.9128
X5.6459Y-2.6628
X5.6709Y-1.9128
X5.8334Y-3.4128
X5.8584Y-0.9753
X5.8584Y-4.1628
X5.9522Y-4.9128
X6.0209Y-1.9128
X6.0459Y-2.6628
X6.2084Y-4.1628
X6.2334Y-3.4128
X6.3959Y-0.9753
X6.3959Y-2.6628
X6.4209Y-1.9128
X6.5834Y-3.4128
X6.6084Y-4.1628
X6.7709Y-1.9128
X6.7959Y-0.9753
X6.7959Y-2.6628
X6.9584Y-4.1628
X6.9834Y-3.4128
X7.1459Y-0.9753
X7.1459Y-2.6628
X7.1459Y-4.9128
X7.1709Y-1.9128
X7.3334Y-3.4128
X7.3584Y-4.1628
X7.5209Y-1.9128
X7.5459Y-0.9753
X7.5459Y-2.6628
X7.5459Y-4.9128
X7.7084Y-4.1628
X7.7334Y-3.4128
X7.8959Y-0.9753
X7.8959Y-2.6628
X7.9209Y-1.9128
X8.0834Y-3.4128
X8.1084Y-4.1628
X8.2709Y-1.9128
X8.2709Y-4.9128
X8.2959Y-0.9753
X8.2959Y-2.6628
X8.4584Y-4.1628
X8.4834Y-3.4128
X8.6459Y-0.9753
X8.6459Y-2.6628
X8.6709Y-1.9128
X8.6709Y-4.9128
X8.8334Y-3.4128
X8.8584Y-4.1628
X9.0209Y-1.9128
X9.0209Y-4.9128
X9.0459Y-0.9753
X9.0459Y-2.6628
X9.2084Y-4.1628
X9.2334Y-3.4128
X9.3959Y-0.9753
X9.3959Y-2.6628
X9.4209Y-1.9128
X9.4209Y-4.9128
X9.5834Y-3.4128
X9.6084Y-4.1628
X9.7709Y-1.9128
X9.7709Y-4.9128
X9.7959Y-0.9753
X9.7959Y-2.6628
X9.9834Y-3.4128
X10.1459Y-0.9753
X10.1459Y-2.6628
X10.1709Y-1.9128
X10.1709Y-4.9128
X10.2397Y-4.1628
X10.5459Y-0.9753
X10.5459Y-2.6628
X10.6397Y-4.1628
X10.7084Y-5.1003
X10.8022Y-3.4128
X10.8959Y-1.9128
X11.0834Y-0.9753
X11.0834Y-2.6628
X11.1084Y-5.1003
X11.2022Y-3.4128
X11.2959Y-1.9128
X11.4584Y-4.3503
X11.4584Y-5.1003
X11.4834Y-0.9753
X11.4834Y-2.6628
X11.8584Y-4.3503
X11.8584Y-5.1003
X12.2084Y-5.1003
X12.3959Y-0.9753
X12.3959Y-1.9128
X12.3959Y-2.6628
X12.3959Y-3.4128
X12.3959Y-4.1628
X12.6084Y-5.1003
X12.7959Y-0.9753
X12.7959Y-1.9128
X12.7959Y-2.6628
X12.7959Y-3.4128
X12.7959Y-4.1628
T3
X0.9709Y-0.9753
X0.9709Y-1.9128
X1.0647Y-4.1628
X1.0647Y-4.9128
X1.0652Y-3.4128
X1.1584Y-2.6628
X1.2522Y-3.4128
X1.7209Y-1.9128
X1.9084Y-0.9753
X1.9084Y-4.1628
X2.0022Y-4.9128
X2.0959Y-2.6628
X2.2834Y-3.4128
X2.4709Y-1.9128
X2.6584Y-0.9753
X2.6584Y-4.1628
X2.8459Y-2.6628
X2.9397Y-4.9128
X3.0334Y-3.4128
X3.2209Y-1.9128
X3.4084Y-0.9753
X3.4084Y-4.1628
X3.5959Y-2.6628
X3.6897Y-5.2378
X3.7834Y-3.4128
X3.7834Y-5.2378
X3.9709Y-1.9128
X4.1584Y-0.9753
X4.1584Y-4.1628
X4.1584Y-4.9128
X4.3459Y-2.6628
X4.5334Y-3.4128
X4.6272Y-5.2378
X4.7209Y-1.9128
X4.9084Y-0.9753
X4.9084Y-4.1628
X5.0959Y-2.6628
X5.2834Y-3.4128
X5.2834Y-5.2378
X5.4709Y-1.9128
X5.6584Y-0.9753
X5.6584Y-4.1628
X5.7522Y-4.9128
X5.8459Y-2.6628
X6.0334Y-3.4128
X6.2209Y-1.9128
X6.2209Y-5.2378
X6.4084Y-4.1628
X6.5959Y-0.9753
X6.5959Y-2.6628
X6.7834Y-3.4128
X6.8772Y-5.2378
X6.9709Y-1.9128
X7.1584Y-4.1628
X7.3459Y-0.9753
X7.3459Y-2.6628
X7.3459Y-4.9128
X7.5334Y-3.4128
X7.7209Y-1.9128
X7.7209Y-5.2378
X7.8147Y-5.2378
X7.9084Y-4.1628
X8.0959Y-0.9753
X8.0959Y-2.6628
X8.2834Y-3.4128
X8.4709Y-1.9128
X8.4709Y-4.9128
X8.6584Y-4.1628
X8.8459Y-0.9753
X8.8459Y-2.6628
X9.0334Y-3.4128
X9.2209Y-1.9128
X9.2209Y-4.9128
X9.4084Y-4.1628
X9.5959Y-0.9753
X9.5959Y-2.6628
X9.7834Y-3.4128
X9.9709Y-1.9128
X9.9709Y-4.9128
X10.3459Y-0.9753
X10.3459Y-2.6628
X10.4397Y-4.1628
X10.5334Y-3.7378
X10.6272Y-2.2378
X10.9084Y-5.1003
X11.0022Y-3.4128
X11.0959Y-1.9128
X11.2834Y-0.9753
X11.2834Y-2.6628
X11.4709Y-3.7378
X11.5647Y-2.2378
X11.6584Y-4.3503
X11.6584Y-5.1003
X12.4084Y-5.1003
X12.5959Y-0.9753
X12.5959Y-0.9753
X12.5959Y-1.9128
X12.5959Y-2.6628
X12.5959Y-3.4128
X12.5959Y-4.1628
M30
