%TF.GenerationSoftware,KiCad,Pcbnew,8.0.4*%
%TF.CreationDate,2024-09-06T17:25:15+02:00*%
%TF.ProjectId,kicad8,6b696361-6438-42e6-9b69-6361645f7063,rev?*%
%TF.SameCoordinates,Original*%
%TF.FileFunction,Paste,Bot*%
%TF.FilePolarity,Positive*%
%FSLAX46Y46*%
G04 Gerber Fmt 4.6, Leading zero omitted, Abs format (unit mm)*
G04 Created by KiCad (PCBNEW 8.0.4) date 2024-09-06 17:25:15*
%MOMM*%
%LPD*%
G01*
G04 APERTURE LIST*
G04 Aperture macros list*
%AMRoundRect*
0 Rectangle with rounded corners*
0 $1 Rounding radius*
0 $2 $3 $4 $5 $6 $7 $8 $9 X,Y pos of 4 corners*
0 Add a 4 corners polygon primitive as box body*
4,1,4,$2,$3,$4,$5,$6,$7,$8,$9,$2,$3,0*
0 Add four circle primitives for the rounded corners*
1,1,$1+$1,$2,$3*
1,1,$1+$1,$4,$5*
1,1,$1+$1,$6,$7*
1,1,$1+$1,$8,$9*
0 Add four rect primitives between the rounded corners*
20,1,$1+$1,$2,$3,$4,$5,0*
20,1,$1+$1,$4,$5,$6,$7,0*
20,1,$1+$1,$6,$7,$8,$9,0*
20,1,$1+$1,$8,$9,$2,$3,0*%
%AMFreePoly0*
4,1,18,-0.410000,0.593000,-0.403758,0.624380,-0.385983,0.650983,-0.359380,0.668758,-0.328000,0.675000,0.328000,0.675000,0.359380,0.668758,0.385983,0.650983,0.403758,0.624380,0.410000,0.593000,0.410000,-0.593000,0.403758,-0.624380,0.385983,-0.650983,0.359380,-0.668758,0.328000,-0.675000,0.000000,-0.675000,-0.410000,-0.265000,-0.410000,0.593000,-0.410000,0.593000,$1*%
G04 Aperture macros list end*
%ADD10RoundRect,0.225000X0.375000X-0.225000X0.375000X0.225000X-0.375000X0.225000X-0.375000X-0.225000X0*%
%ADD11RoundRect,0.082000X0.593000X-0.328000X0.593000X0.328000X-0.593000X0.328000X-0.593000X-0.328000X0*%
%ADD12FreePoly0,90.000000*%
%ADD13RoundRect,0.140000X0.140000X0.170000X-0.140000X0.170000X-0.140000X-0.170000X0.140000X-0.170000X0*%
%ADD14RoundRect,0.225000X-0.375000X0.225000X-0.375000X-0.225000X0.375000X-0.225000X0.375000X0.225000X0*%
%ADD15RoundRect,0.225000X-0.225000X-0.375000X0.225000X-0.375000X0.225000X0.375000X-0.225000X0.375000X0*%
%ADD16RoundRect,0.250000X1.025000X1.000000X-1.025000X1.000000X-1.025000X-1.000000X1.025000X-1.000000X0*%
%ADD17RoundRect,0.082000X-0.593000X0.328000X-0.593000X-0.328000X0.593000X-0.328000X0.593000X0.328000X0*%
%ADD18FreePoly0,270.000000*%
%ADD19R,1.500000X0.900000*%
%ADD20RoundRect,0.140000X0.170000X-0.140000X0.170000X0.140000X-0.170000X0.140000X-0.170000X-0.140000X0*%
%ADD21RoundRect,0.225000X0.225000X0.375000X-0.225000X0.375000X-0.225000X-0.375000X0.225000X-0.375000X0*%
%ADD22RoundRect,0.140000X-0.219203X-0.021213X-0.021213X-0.219203X0.219203X0.021213X0.021213X0.219203X0*%
%ADD23RoundRect,0.225000X0.250000X-0.225000X0.250000X0.225000X-0.250000X0.225000X-0.250000X-0.225000X0*%
%ADD24RoundRect,0.175000X-0.175000X-0.325000X0.175000X-0.325000X0.175000X0.325000X-0.175000X0.325000X0*%
%ADD25RoundRect,0.150000X-0.200000X-0.150000X0.200000X-0.150000X0.200000X0.150000X-0.200000X0.150000X0*%
%ADD26RoundRect,0.140000X-0.140000X-0.170000X0.140000X-0.170000X0.140000X0.170000X-0.140000X0.170000X0*%
%ADD27RoundRect,0.082000X0.328000X0.593000X-0.328000X0.593000X-0.328000X-0.593000X0.328000X-0.593000X0*%
%ADD28FreePoly0,180.000000*%
%ADD29R,0.600000X1.450000*%
%ADD30R,0.300000X1.450000*%
%ADD31RoundRect,0.250000X-1.000000X1.025000X-1.000000X-1.025000X1.000000X-1.025000X1.000000X1.025000X0*%
%ADD32RoundRect,0.225000X0.424264X0.106066X0.106066X0.424264X-0.424264X-0.106066X-0.106066X-0.424264X0*%
%ADD33RoundRect,0.135000X0.135000X0.185000X-0.135000X0.185000X-0.135000X-0.185000X0.135000X-0.185000X0*%
%ADD34RoundRect,0.150000X0.587500X0.150000X-0.587500X0.150000X-0.587500X-0.150000X0.587500X-0.150000X0*%
%ADD35RoundRect,0.250000X-0.375000X-0.625000X0.375000X-0.625000X0.375000X0.625000X-0.375000X0.625000X0*%
%ADD36R,1.000000X1.700000*%
%ADD37RoundRect,0.140000X0.021213X-0.219203X0.219203X-0.021213X-0.021213X0.219203X-0.219203X0.021213X0*%
%ADD38RoundRect,0.150000X-0.150000X0.587500X-0.150000X-0.587500X0.150000X-0.587500X0.150000X0.587500X0*%
%ADD39RoundRect,0.135000X-0.135000X-0.185000X0.135000X-0.185000X0.135000X0.185000X-0.135000X0.185000X0*%
%ADD40RoundRect,0.140000X-0.021213X0.219203X-0.219203X0.021213X0.021213X-0.219203X0.219203X-0.021213X0*%
%ADD41RoundRect,0.075000X-0.415425X-0.521491X0.521491X0.415425X0.415425X0.521491X-0.521491X-0.415425X0*%
%ADD42RoundRect,0.075000X0.415425X-0.521491X0.521491X-0.415425X-0.415425X0.521491X-0.521491X0.415425X0*%
%ADD43RoundRect,0.250000X1.000000X-1.025000X1.000000X1.025000X-1.000000X1.025000X-1.000000X-1.025000X0*%
G04 APERTURE END LIST*
D10*
%TO.C,D68*%
X203969852Y-107782600D03*
X203969852Y-104482600D03*
%TD*%
D11*
%TO.C,LED32*%
X283874227Y-71648225D03*
X283874227Y-73148225D03*
X289324227Y-71648225D03*
D12*
X289324227Y-73148225D03*
%TD*%
D13*
%TO.C,C10*%
X304941727Y-35398226D03*
X303981727Y-35398226D03*
%TD*%
D14*
%TO.C,C33*%
X100067977Y-28282600D03*
X100067977Y-31582600D03*
%TD*%
D10*
%TO.C,C103*%
X220717977Y-131595100D03*
X220717977Y-128295100D03*
%TD*%
%TO.C,D35*%
X132532352Y-70079475D03*
X132532352Y-66779475D03*
%TD*%
D15*
%TO.C,C72*%
X123024227Y-91448225D03*
X126324227Y-91448225D03*
%TD*%
D16*
%TO.C,${VALUE}*%
X217326727Y-65095725D03*
X230776727Y-62555725D03*
%TD*%
D17*
%TO.C,LED59*%
X322661727Y-92198225D03*
X322661727Y-90698225D03*
X317211727Y-92198225D03*
D18*
X317211727Y-90698225D03*
%TD*%
D10*
%TO.C,D71*%
X268263602Y-108179475D03*
X268263602Y-104879475D03*
%TD*%
D16*
%TO.C,${VALUE}*%
X198276727Y-65095725D03*
X211726727Y-62555725D03*
%TD*%
D10*
%TO.C,D11*%
X227782352Y-27216975D03*
X227782352Y-23916975D03*
%TD*%
D14*
%TO.C,C90*%
X138564852Y-108848225D03*
X138564852Y-112148225D03*
%TD*%
%TO.C,C37*%
X19105477Y-28282600D03*
X19105477Y-31582600D03*
%TD*%
D17*
%TO.C,LED16*%
X27386727Y-54098225D03*
X27386727Y-52598225D03*
X21936727Y-54098225D03*
D18*
X21936727Y-52598225D03*
%TD*%
D10*
%TO.C,C99*%
X80224227Y-131595100D03*
X80224227Y-128295100D03*
%TD*%
D15*
%TO.C,C74*%
X161124227Y-91448225D03*
X164424227Y-91448225D03*
%TD*%
D10*
%TO.C,C52*%
X325492977Y-54204475D03*
X325492977Y-50904475D03*
%TD*%
D14*
%TO.C,C61*%
X143327352Y-71145100D03*
X143327352Y-74445100D03*
%TD*%
D17*
%TO.C,LED80*%
X189311727Y-130298225D03*
X189311727Y-128798225D03*
X183861727Y-130298225D03*
D18*
X183861727Y-128798225D03*
%TD*%
D11*
%TO.C,LED31*%
X317211727Y-71648225D03*
X317211727Y-73148225D03*
X322661727Y-71648225D03*
D12*
X322661727Y-73148225D03*
%TD*%
D11*
%TO.C,LED2*%
X283874227Y-28785725D03*
X283874227Y-30285725D03*
X289324227Y-28785725D03*
D12*
X289324227Y-30285725D03*
%TD*%
D11*
%TO.C,LED39*%
X145761727Y-71648225D03*
X145761727Y-73148225D03*
X151211727Y-71648225D03*
D12*
X151211727Y-73148225D03*
%TD*%
D10*
%TO.C,C41*%
X87367977Y-54204475D03*
X87367977Y-50904475D03*
%TD*%
D16*
%TO.C,${VALUE}*%
X279239227Y-65095725D03*
X292689227Y-62555725D03*
%TD*%
D10*
%TO.C,D13*%
X265882352Y-27216975D03*
X265882352Y-23916975D03*
%TD*%
%TO.C,C43*%
X125467977Y-54204475D03*
X125467977Y-50904475D03*
%TD*%
%TO.C,D77*%
X108705724Y-127229475D03*
X108705724Y-123929475D03*
%TD*%
D11*
%TO.C,LED10*%
X121949227Y-28785725D03*
X121949227Y-30285725D03*
X127399227Y-28785725D03*
D12*
X127399227Y-30285725D03*
%TD*%
D10*
%TO.C,D17*%
X65857352Y-51029475D03*
X65857352Y-47729475D03*
%TD*%
%TO.C,C11*%
X281439852Y-59760725D03*
X281439852Y-56460725D03*
%TD*%
D15*
%TO.C,C69*%
X65874227Y-91448225D03*
X69174227Y-91448225D03*
%TD*%
D14*
%TO.C,C56*%
X238577352Y-71145100D03*
X238577352Y-74445100D03*
%TD*%
D10*
%TO.C,D64*%
X127769852Y-108179475D03*
X127769852Y-104879475D03*
%TD*%
%TO.C,D39*%
X208732352Y-70079475D03*
X208732352Y-66779475D03*
%TD*%
%TO.C,C98*%
X56411727Y-131595100D03*
X56411727Y-128295100D03*
%TD*%
D14*
%TO.C,C55*%
X257627352Y-71145100D03*
X257627352Y-74445100D03*
%TD*%
D16*
%TO.C,${VALUE}*%
X179226727Y-65095725D03*
X192676727Y-62555725D03*
%TD*%
%TO.C,${VALUE}*%
X312576727Y-22233225D03*
X326026727Y-19693225D03*
%TD*%
%TO.C,${VALUE}*%
X164939227Y-84145725D03*
X178389227Y-81605725D03*
%TD*%
D10*
%TO.C,D84*%
X299219852Y-131991975D03*
X299219852Y-128691975D03*
%TD*%
D19*
%TO.C,UL_LED_8*%
X100255477Y-94560725D03*
X100255477Y-97860725D03*
X95355477Y-97860725D03*
X95355477Y-94560725D03*
%TD*%
D17*
%TO.C,LED20*%
X103586727Y-54098225D03*
X103586727Y-52598225D03*
X98136727Y-54098225D03*
D18*
X98136727Y-52598225D03*
%TD*%
D16*
%TO.C,${VALUE}*%
X74451727Y-46045725D03*
X87901727Y-43505725D03*
%TD*%
D10*
%TO.C,D50*%
X137294852Y-89129475D03*
X137294852Y-85829475D03*
%TD*%
%TO.C,D56*%
X251594852Y-89129475D03*
X251594852Y-85829475D03*
%TD*%
D15*
%TO.C,C71*%
X103974227Y-91448225D03*
X107274227Y-91448225D03*
%TD*%
D10*
%TO.C,D52*%
X175394852Y-89129475D03*
X175394852Y-85829475D03*
%TD*%
D16*
%TO.C,${VALUE}*%
X226851727Y-46045725D03*
X240301727Y-43505725D03*
%TD*%
D10*
%TO.C,C46*%
X182617977Y-54204475D03*
X182617977Y-50904475D03*
%TD*%
D14*
%TO.C,C57*%
X219527352Y-71145100D03*
X219527352Y-74445100D03*
%TD*%
D16*
%TO.C,${VALUE}*%
X222089227Y-84145725D03*
X235539227Y-81605725D03*
%TD*%
%TO.C,${VALUE}*%
X193514227Y-103195725D03*
X206964227Y-100655725D03*
%TD*%
D14*
%TO.C,C35*%
X61967977Y-28282600D03*
X61967977Y-31582600D03*
%TD*%
D10*
%TO.C,C48*%
X220717977Y-54204475D03*
X220717977Y-50904475D03*
%TD*%
%TO.C,D26*%
X237307352Y-51029475D03*
X237307352Y-47729475D03*
%TD*%
%TO.C,D36*%
X151582352Y-70079475D03*
X151582352Y-66779475D03*
%TD*%
D17*
%TO.C,LED54*%
X194074227Y-92198225D03*
X194074227Y-90698225D03*
X188624227Y-92198225D03*
D18*
X188624227Y-90698225D03*
%TD*%
D17*
%TO.C,LED56*%
X232174227Y-92198225D03*
X232174227Y-90698225D03*
X226724227Y-92198225D03*
D18*
X226724227Y-90698225D03*
%TD*%
D15*
%TO.C,C79*%
X261136727Y-91448225D03*
X264436727Y-91448225D03*
%TD*%
D14*
%TO.C,C83*%
X290964852Y-113610725D03*
X290964852Y-116910725D03*
%TD*%
D19*
%TO.C,UL_LED_2*%
X236633602Y-59760725D03*
X236633602Y-56460725D03*
X241533602Y-56460725D03*
X241533602Y-59760725D03*
%TD*%
D11*
%TO.C,LED72*%
X64799227Y-109748225D03*
X64799227Y-111248225D03*
X70249227Y-109748225D03*
D12*
X70249227Y-111248225D03*
%TD*%
D14*
%TO.C,C89*%
X157614852Y-108848225D03*
X157614852Y-112148225D03*
%TD*%
D20*
%TO.C,C8*%
X305131727Y-29278226D03*
X305131727Y-28318226D03*
%TD*%
D10*
%TO.C,D73*%
X299219852Y-112941975D03*
X299219852Y-109641975D03*
%TD*%
D16*
%TO.C,${VALUE}*%
X55401727Y-46045725D03*
X68851727Y-43505725D03*
%TD*%
D21*
%TO.C,R7*%
X321586727Y-34298225D03*
X318286727Y-34298225D03*
%TD*%
D16*
%TO.C,${VALUE}*%
X136364227Y-103195725D03*
X149814227Y-100655725D03*
%TD*%
%TO.C,${VALUE}*%
X36351727Y-46045725D03*
X49801727Y-43505725D03*
%TD*%
D14*
%TO.C,C28*%
X200080477Y-28282600D03*
X200080477Y-31582600D03*
%TD*%
D10*
%TO.C,D58*%
X323032352Y-89129475D03*
X323032352Y-85829475D03*
%TD*%
D14*
%TO.C,C59*%
X181427352Y-71145100D03*
X181427352Y-74445100D03*
%TD*%
D16*
%TO.C,${VALUE}*%
X43495477Y-122245725D03*
X56945477Y-119705725D03*
%TD*%
D19*
%TO.C,UL_LED_10*%
X191477352Y-94560725D03*
X191477352Y-97860725D03*
X186577352Y-97860725D03*
X186577352Y-94560725D03*
%TD*%
D11*
%TO.C,LED73*%
X45749227Y-109748225D03*
X45749227Y-111248225D03*
X51199227Y-109748225D03*
D12*
X51199227Y-111248225D03*
%TD*%
D10*
%TO.C,D25*%
X218257352Y-51029475D03*
X218257352Y-47729475D03*
%TD*%
D16*
%TO.C,${VALUE}*%
X269714227Y-127008225D03*
X283164227Y-124468225D03*
%TD*%
D17*
%TO.C,LED48*%
X79774227Y-92198225D03*
X79774227Y-90698225D03*
X74324227Y-92198225D03*
D18*
X74324227Y-90698225D03*
%TD*%
D10*
%TO.C,D9*%
X189682352Y-27216975D03*
X189682352Y-23916975D03*
%TD*%
%TO.C,D86*%
X309221102Y-22851350D03*
X309221102Y-19551350D03*
%TD*%
D22*
%TO.C,C7*%
X299084200Y-78821253D03*
X299763022Y-79500075D03*
%TD*%
D10*
%TO.C,D75*%
X53951102Y-127229475D03*
X53951102Y-123929475D03*
%TD*%
D17*
%TO.C,LED57*%
X251224227Y-92198225D03*
X251224227Y-90698225D03*
X245774227Y-92198225D03*
D18*
X245774227Y-90698225D03*
%TD*%
D14*
%TO.C,C22*%
X288186727Y-94560725D03*
X288186727Y-97860725D03*
%TD*%
%TO.C,C96*%
X21883602Y-108848225D03*
X21883602Y-112148225D03*
%TD*%
D11*
%TO.C,LED70*%
X102899227Y-109748225D03*
X102899227Y-111248225D03*
X108349227Y-109748225D03*
D12*
X108349227Y-111248225D03*
%TD*%
D19*
%TO.C,UL_LED_4*%
X142633602Y-59760725D03*
X142633602Y-56460725D03*
X147533602Y-56460725D03*
X147533602Y-59760725D03*
%TD*%
D10*
%TO.C,D34*%
X113482352Y-70079475D03*
X113482352Y-66779475D03*
%TD*%
D14*
%TO.C,C26*%
X238180477Y-28282600D03*
X238180477Y-31582600D03*
%TD*%
D11*
%TO.C,LED35*%
X221961727Y-71648225D03*
X221961727Y-73148225D03*
X227411727Y-71648225D03*
D12*
X227411727Y-73148225D03*
%TD*%
D16*
%TO.C,${VALUE}*%
X307814227Y-127008225D03*
X321264227Y-124468225D03*
%TD*%
D19*
%TO.C,UL_LED_1*%
X283633602Y-59760725D03*
X283633602Y-56460725D03*
X288533602Y-56460725D03*
X288533602Y-59760725D03*
%TD*%
D11*
%TO.C,LED60*%
X317211727Y-109748225D03*
X317211727Y-111248225D03*
X322661727Y-109748225D03*
D12*
X322661727Y-111248225D03*
%TD*%
D14*
%TO.C,C18*%
X103242977Y-94560725D03*
X103242977Y-97860725D03*
%TD*%
D11*
%TO.C,LED38*%
X164811727Y-71648225D03*
X164811727Y-73148225D03*
X170261727Y-71648225D03*
D12*
X170261727Y-73148225D03*
%TD*%
D10*
%TO.C,C15*%
X93211727Y-59760725D03*
X93211727Y-56460725D03*
%TD*%
%TO.C,C49*%
X239767977Y-54204475D03*
X239767977Y-50904475D03*
%TD*%
D16*
%TO.C,${VALUE}*%
X279239227Y-22233225D03*
X292689227Y-19693225D03*
%TD*%
D15*
%TO.C,C77*%
X218274227Y-91448225D03*
X221574227Y-91448225D03*
%TD*%
D10*
%TO.C,D65*%
X146819852Y-108179475D03*
X146819852Y-104879475D03*
%TD*%
D11*
%TO.C,LED40*%
X126711727Y-71648225D03*
X126711727Y-73148225D03*
X132161727Y-71648225D03*
D12*
X132161727Y-73148225D03*
%TD*%
D11*
%TO.C,LED8*%
X164811727Y-28785725D03*
X164811727Y-30285725D03*
X170261727Y-28785725D03*
D12*
X170261727Y-30285725D03*
%TD*%
D10*
%TO.C,D49*%
X118244852Y-89129475D03*
X118244852Y-85829475D03*
%TD*%
D16*
%TO.C,${VALUE}*%
X288764227Y-127008225D03*
X302214227Y-124468225D03*
%TD*%
D23*
%TO.C,C2*%
X312689183Y-76579124D03*
X312689183Y-75029124D03*
%TD*%
D11*
%TO.C,LED43*%
X69561727Y-71648225D03*
X69561727Y-73148225D03*
X75011727Y-71648225D03*
D12*
X75011727Y-73148225D03*
%TD*%
D14*
%TO.C,C95*%
X43314852Y-108848225D03*
X43314852Y-112148225D03*
%TD*%
D16*
%TO.C,${VALUE}*%
X312576727Y-65095725D03*
X326026727Y-62555725D03*
%TD*%
%TO.C,${VALUE}*%
X207801727Y-122245725D03*
X221251727Y-119705725D03*
%TD*%
D10*
%TO.C,D33*%
X94432352Y-70079475D03*
X94432352Y-66779475D03*
%TD*%
D17*
%TO.C,LED83*%
X255986727Y-130298225D03*
X255986727Y-128798225D03*
X250536727Y-130298225D03*
D18*
X250536727Y-128798225D03*
%TD*%
D10*
%TO.C,D63*%
X108719852Y-108179475D03*
X108719852Y-104879475D03*
%TD*%
D19*
%TO.C,UL_LED_7*%
X53255477Y-94560725D03*
X53255477Y-97860725D03*
X48355477Y-97860725D03*
X48355477Y-94560725D03*
%TD*%
D10*
%TO.C,D59*%
X30217977Y-108179475D03*
X30217977Y-104879475D03*
%TD*%
%TO.C,C97*%
X32599227Y-131595100D03*
X32599227Y-128295100D03*
%TD*%
%TO.C,D10*%
X208732352Y-27216975D03*
X208732352Y-23916975D03*
%TD*%
%TO.C,D19*%
X103957352Y-51029475D03*
X103957352Y-47729475D03*
%TD*%
%TO.C,C47*%
X201667977Y-54204475D03*
X201667977Y-50904475D03*
%TD*%
D21*
%TO.C,D45*%
X31074227Y-96607600D03*
X27774227Y-96607600D03*
%TD*%
D16*
%TO.C,${VALUE}*%
X288764227Y-107958225D03*
X302214227Y-105418225D03*
%TD*%
D10*
%TO.C,D20*%
X123007352Y-51029475D03*
X123007352Y-47729475D03*
%TD*%
D19*
%TO.C,UL_LED_5*%
X95633602Y-59760725D03*
X95633602Y-56460725D03*
X100533602Y-56460725D03*
X100533602Y-59760725D03*
%TD*%
D10*
%TO.C,C108*%
X320730477Y-136357600D03*
X320730477Y-133057600D03*
%TD*%
D24*
%TO.C,U2*%
X301131727Y-26298226D03*
D25*
X301131727Y-24598226D03*
X303131727Y-24598226D03*
X303131727Y-26498226D03*
%TD*%
D10*
%TO.C,D61*%
X70619852Y-108179475D03*
X70619852Y-104879475D03*
%TD*%
D16*
%TO.C,${VALUE}*%
X126839227Y-84145725D03*
X140289227Y-81605725D03*
%TD*%
D11*
%TO.C,LED63*%
X236249227Y-109748225D03*
X236249227Y-111248225D03*
X241699227Y-109748225D03*
D12*
X241699227Y-111248225D03*
%TD*%
D26*
%TO.C,C1*%
X307009851Y-108473223D03*
X307969851Y-108473223D03*
%TD*%
D27*
%TO.C,LED46*%
X42961727Y-89410725D03*
X44461727Y-89410725D03*
X42961727Y-83960725D03*
D28*
X44461727Y-83960725D03*
%TD*%
D29*
%TO.C,J1*%
X298922204Y-21559766D03*
X299722204Y-21559766D03*
D30*
X300922204Y-21559766D03*
X301922204Y-21559766D03*
X302422204Y-21559766D03*
X303422204Y-21559766D03*
D29*
X304622204Y-21559766D03*
X305422204Y-21559766D03*
X305422204Y-21559766D03*
X304622204Y-21559766D03*
D30*
X303922204Y-21559766D03*
X302922204Y-21559766D03*
X301422204Y-21559766D03*
X300422204Y-21559766D03*
D29*
X299722204Y-21559766D03*
X298922204Y-21559766D03*
%TD*%
D16*
%TO.C,${VALUE}*%
X255426727Y-65095725D03*
X268876727Y-62555725D03*
%TD*%
D14*
%TO.C,C31*%
X138167977Y-28282600D03*
X138167977Y-31582600D03*
%TD*%
D10*
%TO.C,D1*%
X27757352Y-27216975D03*
X27757352Y-23916975D03*
%TD*%
D31*
%TO.C,${VALUE}*%
X24515477Y-94045725D03*
X21975477Y-80595725D03*
%TD*%
D10*
%TO.C,D7*%
X146819852Y-27216975D03*
X146819852Y-23916975D03*
%TD*%
%TO.C,D83*%
X280169852Y-131991975D03*
X280169852Y-128691975D03*
%TD*%
%TO.C,D79*%
X189680800Y-127229475D03*
X189680800Y-123929475D03*
%TD*%
D17*
%TO.C,LED55*%
X213124227Y-92198225D03*
X213124227Y-90698225D03*
X207674227Y-92198225D03*
D18*
X207674227Y-90698225D03*
%TD*%
D10*
%TO.C,D28*%
X285011727Y-51029475D03*
X285011727Y-47729475D03*
%TD*%
%TO.C,D3*%
X70619852Y-27216975D03*
X70619852Y-23916975D03*
%TD*%
D32*
%TO.C,R6*%
X298084703Y-63246201D03*
X295751251Y-60912749D03*
%TD*%
D16*
%TO.C,${VALUE}*%
X19682977Y-122245725D03*
X33132977Y-119705725D03*
%TD*%
D14*
%TO.C,C63*%
X105227352Y-71145100D03*
X105227352Y-74445100D03*
%TD*%
D17*
%TO.C,LED52*%
X155974227Y-92198225D03*
X155974227Y-90698225D03*
X150524227Y-92198225D03*
D18*
X150524227Y-90698225D03*
%TD*%
D10*
%TO.C,D70*%
X242069852Y-108179475D03*
X242069852Y-104879475D03*
%TD*%
%TO.C,D41*%
X246832352Y-70079475D03*
X246832352Y-66779475D03*
%TD*%
%TO.C,D55*%
X232544852Y-89129475D03*
X232544852Y-85829475D03*
%TD*%
D11*
%TO.C,LED62*%
X262442977Y-109748225D03*
X262442977Y-111248225D03*
X267892977Y-109748225D03*
D12*
X267892977Y-111248225D03*
%TD*%
D10*
%TO.C,D22*%
X161107352Y-51029475D03*
X161107352Y-47729475D03*
%TD*%
%TO.C,C13*%
X187211727Y-59760725D03*
X187211727Y-56460725D03*
%TD*%
D14*
%TO.C,C67*%
X24264852Y-71145100D03*
X24264852Y-74445100D03*
%TD*%
D11*
%TO.C,LED74*%
X24317977Y-109748225D03*
X24317977Y-111248225D03*
X29767977Y-109748225D03*
D12*
X29767977Y-111248225D03*
%TD*%
D14*
%TO.C,C29*%
X181030477Y-28282600D03*
X181030477Y-31582600D03*
%TD*%
D16*
%TO.C,${VALUE}*%
X98264227Y-103195725D03*
X111714227Y-100655725D03*
%TD*%
D10*
%TO.C,C12*%
X234211727Y-59760725D03*
X234211727Y-56460725D03*
%TD*%
D16*
%TO.C,${VALUE}*%
X236376727Y-22233225D03*
X249826727Y-19693225D03*
%TD*%
D17*
%TO.C,LED27*%
X236936727Y-54098225D03*
X236936727Y-52598225D03*
X231486727Y-54098225D03*
D18*
X231486727Y-52598225D03*
%TD*%
D33*
%TO.C,R1*%
X305641727Y-26598226D03*
X304621727Y-26598226D03*
%TD*%
D14*
%TO.C,R5*%
X308427352Y-25107600D03*
X308427352Y-28407600D03*
%TD*%
D17*
%TO.C,LED21*%
X122636727Y-54098225D03*
X122636727Y-52598225D03*
X117186727Y-54098225D03*
D18*
X117186727Y-52598225D03*
%TD*%
D11*
%TO.C,LED69*%
X121949227Y-109748225D03*
X121949227Y-111248225D03*
X127399227Y-109748225D03*
D12*
X127399227Y-111248225D03*
%TD*%
D16*
%TO.C,${VALUE}*%
X98264227Y-22233225D03*
X111714227Y-19693225D03*
%TD*%
D11*
%TO.C,LED34*%
X241011727Y-71648225D03*
X241011727Y-73148225D03*
X246461727Y-71648225D03*
D12*
X246461727Y-73148225D03*
%TD*%
D16*
%TO.C,${VALUE}*%
X198276727Y-22233225D03*
X211726727Y-19693225D03*
%TD*%
D14*
%TO.C,C19*%
X147296102Y-94560725D03*
X147296102Y-97860725D03*
%TD*%
D10*
%TO.C,D72*%
X323032352Y-108179475D03*
X323032352Y-104879475D03*
%TD*%
%TO.C,D2*%
X51569852Y-27216975D03*
X51569852Y-23916975D03*
%TD*%
D14*
%TO.C,C91*%
X119514852Y-108848225D03*
X119514852Y-112148225D03*
%TD*%
D17*
%TO.C,LED50*%
X117874227Y-92198225D03*
X117874227Y-90698225D03*
X112424227Y-92198225D03*
D18*
X112424227Y-90698225D03*
%TD*%
D11*
%TO.C,LED36*%
X202911727Y-71648225D03*
X202911727Y-73148225D03*
X208361727Y-71648225D03*
D12*
X208361727Y-73148225D03*
%TD*%
D11*
%TO.C,LED66*%
X179099227Y-109748225D03*
X179099227Y-111248225D03*
X184549227Y-109748225D03*
D12*
X184549227Y-111248225D03*
%TD*%
D34*
%TO.C,U3*%
X307131727Y-32048226D03*
X307131727Y-33948226D03*
X305256727Y-32998226D03*
%TD*%
D16*
%TO.C,${VALUE}*%
X64926727Y-65095725D03*
X78376727Y-62555725D03*
%TD*%
D17*
%TO.C,LED25*%
X198836727Y-54098225D03*
X198836727Y-52598225D03*
X193386727Y-54098225D03*
D18*
X193386727Y-52598225D03*
%TD*%
D10*
%TO.C,D67*%
X184919852Y-108179475D03*
X184919852Y-104879475D03*
%TD*%
D16*
%TO.C,${VALUE}*%
X88739227Y-84145725D03*
X102189227Y-81605725D03*
%TD*%
D10*
%TO.C,D21*%
X142057352Y-51029475D03*
X142057352Y-47729475D03*
%TD*%
%TO.C,D23*%
X180157352Y-51029475D03*
X180157352Y-47729475D03*
%TD*%
D15*
%TO.C,C76*%
X199224227Y-91448225D03*
X202524227Y-91448225D03*
%TD*%
D14*
%TO.C,C86*%
X214764852Y-108848225D03*
X214764852Y-112148225D03*
%TD*%
D17*
%TO.C,LED19*%
X84536727Y-54098225D03*
X84536727Y-52598225D03*
X79086727Y-54098225D03*
D18*
X79086727Y-52598225D03*
%TD*%
D10*
%TO.C,D51*%
X156344852Y-89129475D03*
X156344852Y-85829475D03*
%TD*%
D16*
%TO.C,${VALUE}*%
X245901727Y-46045725D03*
X259351727Y-43505725D03*
%TD*%
D10*
%TO.C,C107*%
X301680477Y-136357600D03*
X301680477Y-133057600D03*
%TD*%
D16*
%TO.C,${VALUE}*%
X41114227Y-22233225D03*
X54564227Y-19693225D03*
%TD*%
%TO.C,${VALUE}*%
X245901727Y-122245725D03*
X259351727Y-119705725D03*
%TD*%
D17*
%TO.C,LED79*%
X148830477Y-130298225D03*
X148830477Y-128798225D03*
X143380477Y-130298225D03*
D18*
X143380477Y-128798225D03*
%TD*%
D16*
%TO.C,${VALUE}*%
X83976727Y-65095725D03*
X97426727Y-62555725D03*
%TD*%
D10*
%TO.C,D32*%
X75382352Y-70079475D03*
X75382352Y-66779475D03*
%TD*%
%TO.C,D42*%
X265882352Y-70079475D03*
X265882352Y-66779475D03*
%TD*%
%TO.C,D54*%
X213494852Y-89129475D03*
X213494852Y-85829475D03*
%TD*%
D16*
%TO.C,${VALUE}*%
X112551727Y-46045725D03*
X126001727Y-43505725D03*
%TD*%
D14*
%TO.C,C25*%
X257230477Y-28282600D03*
X257230477Y-31582600D03*
%TD*%
D10*
%TO.C,D4*%
X89669852Y-27216975D03*
X89669852Y-23916975D03*
%TD*%
%TO.C,C45*%
X163567977Y-54204475D03*
X163567977Y-50904475D03*
%TD*%
D11*
%TO.C,LED68*%
X140999227Y-109748225D03*
X140999227Y-111248225D03*
X146449227Y-109748225D03*
D12*
X146449227Y-111248225D03*
%TD*%
D14*
%TO.C,C93*%
X81414852Y-108848225D03*
X81414852Y-112148225D03*
%TD*%
D10*
%TO.C,D8*%
X170632352Y-27216975D03*
X170632352Y-23916975D03*
%TD*%
D16*
%TO.C,${VALUE}*%
X207801727Y-46045725D03*
X221251727Y-43505725D03*
%TD*%
D11*
%TO.C,LED42*%
X88611727Y-71648225D03*
X88611727Y-73148225D03*
X94061727Y-71648225D03*
D12*
X94061727Y-73148225D03*
%TD*%
D16*
%TO.C,${VALUE}*%
X169701727Y-46045725D03*
X183151727Y-43505725D03*
%TD*%
D10*
%TO.C,D16*%
X46807352Y-51029475D03*
X46807352Y-47729475D03*
%TD*%
D17*
%TO.C,LED23*%
X160736727Y-54098225D03*
X160736727Y-52598225D03*
X155286727Y-54098225D03*
D18*
X155286727Y-52598225D03*
%TD*%
D10*
%TO.C,C51*%
X287392977Y-54204475D03*
X287392977Y-50904475D03*
%TD*%
D11*
%TO.C,LED37*%
X183861727Y-71648225D03*
X183861727Y-73148225D03*
X189311727Y-71648225D03*
D12*
X189311727Y-73148225D03*
%TD*%
D14*
%TO.C,C65*%
X67127352Y-71145100D03*
X67127352Y-74445100D03*
%TD*%
D10*
%TO.C,D47*%
X80144852Y-89129475D03*
X80144852Y-85829475D03*
%TD*%
D20*
%TO.C,C9*%
X303611727Y-32398226D03*
X303611727Y-31438226D03*
%TD*%
D19*
%TO.C,UL_LED_3*%
X189633602Y-59760725D03*
X189633602Y-56460725D03*
X194533602Y-56460725D03*
X194533602Y-59760725D03*
%TD*%
D16*
%TO.C,${VALUE}*%
X98264227Y-122245725D03*
X111714227Y-119705725D03*
%TD*%
D10*
%TO.C,C42*%
X106417977Y-54204475D03*
X106417977Y-50904475D03*
%TD*%
D11*
%TO.C,LED44*%
X50511727Y-71648225D03*
X50511727Y-73148225D03*
X55961727Y-71648225D03*
D12*
X55961727Y-73148225D03*
%TD*%
D16*
%TO.C,${VALUE}*%
X17301727Y-46045725D03*
X30751727Y-43505725D03*
%TD*%
D10*
%TO.C,D57*%
X282630477Y-89129475D03*
X282630477Y-85829475D03*
%TD*%
%TO.C,C81*%
X325492977Y-93098225D03*
X325492977Y-89798225D03*
%TD*%
D16*
%TO.C,${VALUE}*%
X150651727Y-46045725D03*
X164101727Y-43505725D03*
%TD*%
D11*
%TO.C,LED61*%
X293399227Y-114510725D03*
X293399227Y-116010725D03*
X298849227Y-114510725D03*
D12*
X298849227Y-116010725D03*
%TD*%
D16*
%TO.C,${VALUE}*%
X312576727Y-46045725D03*
X326026727Y-43505725D03*
%TD*%
D19*
%TO.C,UL_LED_11*%
X238477352Y-94560725D03*
X238477352Y-97860725D03*
X233577352Y-97860725D03*
X233577352Y-94560725D03*
%TD*%
D16*
%TO.C,${VALUE}*%
X41114227Y-103195725D03*
X54564227Y-100655725D03*
%TD*%
%TO.C,${VALUE}*%
X103026727Y-65095725D03*
X116476727Y-62555725D03*
%TD*%
D11*
%TO.C,LED64*%
X217199227Y-109748225D03*
X217199227Y-111248225D03*
X222649227Y-109748225D03*
D12*
X222649227Y-111248225D03*
%TD*%
D16*
%TO.C,${VALUE}*%
X255426727Y-22233225D03*
X268876727Y-19693225D03*
%TD*%
D10*
%TO.C,D74*%
X30138602Y-127229475D03*
X30138602Y-123929475D03*
%TD*%
%TO.C,C105*%
X258817977Y-131595100D03*
X258817977Y-128295100D03*
%TD*%
D16*
%TO.C,${VALUE}*%
X117314227Y-103195725D03*
X130764227Y-100655725D03*
%TD*%
D11*
%TO.C,LED1*%
X317211727Y-28785725D03*
X317211727Y-30285725D03*
X322661727Y-28785725D03*
D12*
X322661727Y-30285725D03*
%TD*%
D10*
%TO.C,D29*%
X323032352Y-51029475D03*
X323032352Y-47729475D03*
%TD*%
D16*
%TO.C,${VALUE}*%
X312576727Y-84145725D03*
X326026727Y-81605725D03*
%TD*%
D35*
%TO.C,F1*%
X300731727Y-29598226D03*
X303531727Y-29598226D03*
%TD*%
D17*
%TO.C,LED26*%
X217886727Y-54098225D03*
X217886727Y-52598225D03*
X212436727Y-54098225D03*
D18*
X212436727Y-52598225D03*
%TD*%
D10*
%TO.C,C50*%
X258817977Y-54204475D03*
X258817977Y-50904475D03*
%TD*%
%TO.C,C100*%
X111180477Y-131198225D03*
X111180477Y-127898225D03*
%TD*%
D17*
%TO.C,LED76*%
X53580477Y-130298225D03*
X53580477Y-128798225D03*
X48130477Y-130298225D03*
D18*
X48130477Y-128798225D03*
%TD*%
D17*
%TO.C,LED53*%
X175024227Y-92198225D03*
X175024227Y-90698225D03*
X169574227Y-92198225D03*
D18*
X169574227Y-90698225D03*
%TD*%
D16*
%TO.C,${VALUE}*%
X257807977Y-103195725D03*
X271257977Y-100655725D03*
%TD*%
D10*
%TO.C,D82*%
X256357352Y-127229475D03*
X256357352Y-123929475D03*
%TD*%
%TO.C,D85*%
X318269852Y-131991975D03*
X318269852Y-128691975D03*
%TD*%
D36*
%TO.C,BOOT1*%
X313502352Y-120791975D03*
X313502352Y-114491975D03*
X309702352Y-120791975D03*
X309702352Y-114491975D03*
%TD*%
D16*
%TO.C,${VALUE}*%
X241139227Y-84145725D03*
X254589227Y-81605725D03*
%TD*%
%TO.C,${VALUE}*%
X212564227Y-103195725D03*
X226014227Y-100655725D03*
%TD*%
D14*
%TO.C,C66*%
X48077352Y-71145100D03*
X48077352Y-74445100D03*
%TD*%
D10*
%TO.C,D66*%
X165869852Y-108179475D03*
X165869852Y-104879475D03*
%TD*%
%TO.C,D44*%
X323032352Y-70079475D03*
X323032352Y-66779475D03*
%TD*%
D17*
%TO.C,LED58*%
X282180477Y-92198225D03*
X282180477Y-90698225D03*
X276730477Y-92198225D03*
D18*
X276730477Y-90698225D03*
%TD*%
D14*
%TO.C,C84*%
X260008602Y-108848225D03*
X260008602Y-112148225D03*
%TD*%
D17*
%TO.C,LED49*%
X98824227Y-92198225D03*
X98824227Y-90698225D03*
X93374227Y-92198225D03*
D18*
X93374227Y-90698225D03*
%TD*%
D10*
%TO.C,C16*%
X46211727Y-59760725D03*
X46211727Y-56460725D03*
%TD*%
D16*
%TO.C,${VALUE}*%
X79214227Y-22233225D03*
X92664227Y-19693225D03*
%TD*%
D10*
%TO.C,D76*%
X77763602Y-127229475D03*
X77763602Y-123929475D03*
%TD*%
%TO.C,C40*%
X68317977Y-54204475D03*
X68317977Y-50904475D03*
%TD*%
D33*
%TO.C,R3*%
X310456102Y-110723223D03*
X309436102Y-110723223D03*
%TD*%
D11*
%TO.C,LED14*%
X45749227Y-28785725D03*
X45749227Y-30285725D03*
X51199227Y-28785725D03*
D12*
X51199227Y-30285725D03*
%TD*%
D16*
%TO.C,${VALUE}*%
X60164227Y-22233225D03*
X73614227Y-19693225D03*
%TD*%
D17*
%TO.C,LED86*%
X317899227Y-135060725D03*
X317899227Y-133560725D03*
X312449227Y-135060725D03*
D18*
X312449227Y-133560725D03*
%TD*%
D10*
%TO.C,D12*%
X246832352Y-27216975D03*
X246832352Y-23916975D03*
%TD*%
D19*
%TO.C,UL_LED_9*%
X144477352Y-94560725D03*
X144477352Y-97860725D03*
X139577352Y-97860725D03*
X139577352Y-94560725D03*
%TD*%
D16*
%TO.C,${VALUE}*%
X179226727Y-122245725D03*
X192676727Y-119705725D03*
%TD*%
%TO.C,${VALUE}*%
X67307977Y-122245725D03*
X80757977Y-119705725D03*
%TD*%
D17*
%TO.C,LED78*%
X108349227Y-130298225D03*
X108349227Y-128798225D03*
X102899227Y-130298225D03*
D18*
X102899227Y-128798225D03*
%TD*%
D15*
%TO.C,C80*%
X294871102Y-91448225D03*
X298171102Y-91448225D03*
%TD*%
D16*
%TO.C,${VALUE}*%
X174464227Y-103195725D03*
X187914227Y-100655725D03*
%TD*%
D14*
%TO.C,C32*%
X119117977Y-28282600D03*
X119117977Y-31582600D03*
%TD*%
D17*
%TO.C,LED30*%
X322661727Y-54098225D03*
X322661727Y-52598225D03*
X317211727Y-54098225D03*
D18*
X317211727Y-52598225D03*
%TD*%
D14*
%TO.C,C85*%
X233814852Y-108848225D03*
X233814852Y-112148225D03*
%TD*%
D11*
%TO.C,LED4*%
X241011727Y-28785725D03*
X241011727Y-30285725D03*
X246461727Y-28785725D03*
D12*
X246461727Y-30285725D03*
%TD*%
D17*
%TO.C,LED81*%
X217886727Y-130298225D03*
X217886727Y-128798225D03*
X212436727Y-130298225D03*
D18*
X212436727Y-128798225D03*
%TD*%
D17*
%TO.C,LED82*%
X236936727Y-130298225D03*
X236936727Y-128798225D03*
X231486727Y-130298225D03*
D18*
X231486727Y-128798225D03*
%TD*%
D16*
%TO.C,${VALUE}*%
X45876727Y-65095725D03*
X59326727Y-62555725D03*
%TD*%
D14*
%TO.C,C17*%
X56014852Y-94560725D03*
X56014852Y-97860725D03*
%TD*%
D15*
%TO.C,C73*%
X142074227Y-91448225D03*
X145374227Y-91448225D03*
%TD*%
D10*
%TO.C,C102*%
X192142977Y-131595100D03*
X192142977Y-128295100D03*
%TD*%
D16*
%TO.C,${VALUE}*%
X179226727Y-22233225D03*
X192676727Y-19693225D03*
%TD*%
D11*
%TO.C,LED7*%
X183861727Y-28785725D03*
X183861727Y-30285725D03*
X189311727Y-28785725D03*
D12*
X189311727Y-30285725D03*
%TD*%
D14*
%TO.C,C30*%
X161980477Y-28282600D03*
X161980477Y-31582600D03*
%TD*%
D16*
%TO.C,${VALUE}*%
X93501727Y-46045725D03*
X106951727Y-43505725D03*
%TD*%
%TO.C,${VALUE}*%
X50639227Y-84145725D03*
X64089227Y-81605725D03*
%TD*%
D11*
%TO.C,LED13*%
X64799227Y-28785725D03*
X64799227Y-30285725D03*
X70249227Y-28785725D03*
D12*
X70249227Y-30285725D03*
%TD*%
D16*
%TO.C,${VALUE}*%
X274476727Y-46045725D03*
X287926727Y-43505725D03*
%TD*%
D11*
%TO.C,LED65*%
X198149227Y-109748225D03*
X198149227Y-111248225D03*
X203599227Y-109748225D03*
D12*
X203599227Y-111248225D03*
%TD*%
D17*
%TO.C,LED22*%
X141686727Y-54098225D03*
X141686727Y-52598225D03*
X136236727Y-54098225D03*
D18*
X136236727Y-52598225D03*
%TD*%
D14*
%TO.C,C36*%
X42917977Y-28282600D03*
X42917977Y-31582600D03*
%TD*%
D16*
%TO.C,${VALUE}*%
X217326727Y-22233225D03*
X230776727Y-19693225D03*
%TD*%
D10*
%TO.C,D24*%
X199207352Y-51029475D03*
X199207352Y-47729475D03*
%TD*%
D16*
%TO.C,${VALUE}*%
X138745477Y-122245725D03*
X152195477Y-119705725D03*
%TD*%
D14*
%TO.C,C24*%
X281042977Y-28282600D03*
X281042977Y-31582600D03*
%TD*%
D22*
%TO.C,C3*%
X310539511Y-74437342D03*
X311218333Y-75116164D03*
%TD*%
D10*
%TO.C,D40*%
X227782352Y-70079475D03*
X227782352Y-66779475D03*
%TD*%
D17*
%TO.C,LED47*%
X60724227Y-92198225D03*
X60724227Y-90698225D03*
X55274227Y-92198225D03*
D18*
X55274227Y-90698225D03*
%TD*%
D16*
%TO.C,${VALUE}*%
X160176727Y-22233225D03*
X173626727Y-19693225D03*
%TD*%
D10*
%TO.C,C44*%
X144517977Y-54204475D03*
X144517977Y-50904475D03*
%TD*%
D16*
%TO.C,${VALUE}*%
X141126727Y-65095725D03*
X154576727Y-62555725D03*
%TD*%
%TO.C,${VALUE}*%
X122076727Y-65095725D03*
X135526727Y-62555725D03*
%TD*%
D17*
%TO.C,LED85*%
X298849227Y-135060725D03*
X298849227Y-133560725D03*
X293399227Y-135060725D03*
D18*
X293399227Y-133560725D03*
%TD*%
D16*
%TO.C,${VALUE}*%
X226851727Y-122245725D03*
X240301727Y-119705725D03*
%TD*%
D14*
%TO.C,C88*%
X176664852Y-108848225D03*
X176664852Y-112148225D03*
%TD*%
D16*
%TO.C,${VALUE}*%
X272095477Y-84145725D03*
X285545477Y-81605725D03*
%TD*%
%TO.C,${VALUE}*%
X183989227Y-84145725D03*
X197439227Y-81605725D03*
%TD*%
D14*
%TO.C,C54*%
X281439852Y-71145100D03*
X281439852Y-74445100D03*
%TD*%
D10*
%TO.C,D53*%
X194444852Y-89129475D03*
X194444852Y-85829475D03*
%TD*%
D17*
%TO.C,LED77*%
X77392977Y-130298225D03*
X77392977Y-128798225D03*
X71942977Y-130298225D03*
D18*
X71942977Y-128798225D03*
%TD*%
D10*
%TO.C,D31*%
X56332352Y-70079475D03*
X56332352Y-66779475D03*
%TD*%
%TO.C,D81*%
X237307352Y-127229475D03*
X237307352Y-123929475D03*
%TD*%
%TO.C,C14*%
X140211727Y-59760725D03*
X140211727Y-56460725D03*
%TD*%
D16*
%TO.C,${VALUE}*%
X155414227Y-103195725D03*
X168864227Y-100655725D03*
%TD*%
D17*
%TO.C,LED17*%
X46436727Y-54098225D03*
X46436727Y-52598225D03*
X40986727Y-54098225D03*
D18*
X40986727Y-52598225D03*
%TD*%
D37*
%TO.C,C4*%
X303052950Y-69165761D03*
X303731772Y-68486939D03*
%TD*%
D15*
%TO.C,C78*%
X237324227Y-91448225D03*
X240624227Y-91448225D03*
%TD*%
D16*
%TO.C,${VALUE}*%
X231614227Y-103195725D03*
X245064227Y-100655725D03*
%TD*%
%TO.C,${VALUE}*%
X188751727Y-46045725D03*
X202201727Y-43505725D03*
%TD*%
%TO.C,${VALUE}*%
X236376727Y-65095725D03*
X249826727Y-62555725D03*
%TD*%
D10*
%TO.C,D30*%
X32519852Y-70079475D03*
X32519852Y-66779475D03*
%TD*%
D11*
%TO.C,LED33*%
X260061727Y-71648225D03*
X260061727Y-73148225D03*
X265511727Y-71648225D03*
D12*
X265511727Y-73148225D03*
%TD*%
D11*
%TO.C,LED11*%
X102899227Y-28785725D03*
X102899227Y-30285725D03*
X108349227Y-28785725D03*
D12*
X108349227Y-30285725D03*
%TD*%
D19*
%TO.C,UL_LED_6*%
X48633602Y-59760725D03*
X48633602Y-56460725D03*
X53533602Y-56460725D03*
X53533602Y-59760725D03*
%TD*%
D16*
%TO.C,${VALUE}*%
X131601727Y-46045725D03*
X145051727Y-43505725D03*
%TD*%
D11*
%TO.C,LED6*%
X202911727Y-28785725D03*
X202911727Y-30285725D03*
X208361727Y-28785725D03*
D12*
X208361727Y-30285725D03*
%TD*%
D14*
%TO.C,C20*%
X194524227Y-94560725D03*
X194524227Y-97860725D03*
%TD*%
D16*
%TO.C,${VALUE}*%
X117314227Y-22233225D03*
X130764227Y-19693225D03*
%TD*%
D10*
%TO.C,D62*%
X89669852Y-108179475D03*
X89669852Y-104879475D03*
%TD*%
D11*
%TO.C,LED5*%
X221961727Y-28785725D03*
X221961727Y-30285725D03*
X227411727Y-28785725D03*
D12*
X227411727Y-30285725D03*
%TD*%
D36*
%TO.C,RST1*%
X303452351Y-114491975D03*
X303452351Y-120791975D03*
X307252351Y-114491975D03*
X307252351Y-120791975D03*
%TD*%
D38*
%TO.C,Qe1*%
X310652352Y-24629475D03*
X312552352Y-24629475D03*
X311602352Y-26504475D03*
%TD*%
D19*
%TO.C,UL_LED_12*%
X285477352Y-94560725D03*
X285477352Y-97860725D03*
X280577352Y-97860725D03*
X280577352Y-94560725D03*
%TD*%
D10*
%TO.C,C104*%
X239767977Y-131595100D03*
X239767977Y-128295100D03*
%TD*%
%TO.C,D18*%
X84907352Y-51029475D03*
X84907352Y-47729475D03*
%TD*%
%TO.C,D60*%
X51649227Y-108179475D03*
X51649227Y-104879475D03*
%TD*%
D11*
%TO.C,LED71*%
X83849227Y-109748225D03*
X83849227Y-111248225D03*
X89299227Y-109748225D03*
D12*
X89299227Y-111248225D03*
%TD*%
D33*
%TO.C,R4*%
X308249851Y-110723223D03*
X307229851Y-110723223D03*
%TD*%
D10*
%TO.C,C106*%
X282630477Y-136357600D03*
X282630477Y-133057600D03*
%TD*%
D15*
%TO.C,C68*%
X42855477Y-92241975D03*
X46155477Y-92241975D03*
%TD*%
D10*
%TO.C,C39*%
X49267977Y-54204475D03*
X49267977Y-50904475D03*
%TD*%
D14*
%TO.C,C60*%
X162377352Y-71145100D03*
X162377352Y-74445100D03*
%TD*%
D11*
%TO.C,LED3*%
X260061727Y-28785725D03*
X260061727Y-30285725D03*
X265511727Y-28785725D03*
D12*
X265511727Y-30285725D03*
%TD*%
D10*
%TO.C,D27*%
X256357352Y-51085725D03*
X256357352Y-47785725D03*
%TD*%
D11*
%TO.C,LED41*%
X107661727Y-71648225D03*
X107661727Y-73148225D03*
X113111727Y-71648225D03*
D12*
X113111727Y-73148225D03*
%TD*%
D16*
%TO.C,${VALUE}*%
X19682977Y-103195725D03*
X33132977Y-100655725D03*
%TD*%
%TO.C,${VALUE}*%
X22064227Y-65095725D03*
X35514227Y-62555725D03*
%TD*%
D17*
%TO.C,LED51*%
X136924227Y-92198225D03*
X136924227Y-90698225D03*
X131474227Y-92198225D03*
D18*
X131474227Y-90698225D03*
%TD*%
D39*
%TO.C,R2*%
X304621727Y-24198226D03*
X305641727Y-24198226D03*
%TD*%
D16*
%TO.C,${VALUE}*%
X203039227Y-84145725D03*
X216489227Y-81605725D03*
%TD*%
D10*
%TO.C,C38*%
X30217977Y-54204475D03*
X30217977Y-50904475D03*
%TD*%
D14*
%TO.C,C21*%
X241355477Y-94560725D03*
X241355477Y-97860725D03*
%TD*%
D16*
%TO.C,${VALUE}*%
X60164227Y-103195725D03*
X73614227Y-100655725D03*
%TD*%
D10*
%TO.C,D69*%
X223019852Y-108179475D03*
X223019852Y-104879475D03*
%TD*%
%TO.C,D37*%
X170632352Y-70079475D03*
X170632352Y-66779475D03*
%TD*%
D15*
%TO.C,C75*%
X180174227Y-91448225D03*
X183474227Y-91448225D03*
%TD*%
D16*
%TO.C,${VALUE}*%
X145889227Y-84145725D03*
X159339227Y-81605725D03*
%TD*%
D14*
%TO.C,C53*%
X314777352Y-70748225D03*
X314777352Y-74048225D03*
%TD*%
%TO.C,C82*%
X314777352Y-108848225D03*
X314777352Y-112148225D03*
%TD*%
D15*
%TO.C,C70*%
X84924227Y-91448225D03*
X88224227Y-91448225D03*
%TD*%
D17*
%TO.C,LED18*%
X65486727Y-54098225D03*
X65486727Y-52598225D03*
X60036727Y-54098225D03*
D18*
X60036727Y-52598225D03*
%TD*%
D17*
%TO.C,LED75*%
X29767977Y-130298225D03*
X29767977Y-128798225D03*
X24317977Y-130298225D03*
D18*
X24317977Y-128798225D03*
%TD*%
D10*
%TO.C,D15*%
X27757352Y-51029475D03*
X27757352Y-47729475D03*
%TD*%
D16*
%TO.C,${VALUE}*%
X79214227Y-103195725D03*
X92664227Y-100655725D03*
%TD*%
D10*
%TO.C,D43*%
X289774227Y-70079475D03*
X289774227Y-66779475D03*
%TD*%
D16*
%TO.C,${VALUE}*%
X69689227Y-84145725D03*
X83139227Y-81605725D03*
%TD*%
D14*
%TO.C,C92*%
X100464852Y-108848225D03*
X100464852Y-112148225D03*
%TD*%
D17*
%TO.C,LED84*%
X279799227Y-135060725D03*
X279799227Y-133560725D03*
X274349227Y-135060725D03*
D18*
X274349227Y-133560725D03*
%TD*%
D11*
%TO.C,LED67*%
X160049227Y-109748225D03*
X160049227Y-111248225D03*
X165499227Y-109748225D03*
D12*
X165499227Y-111248225D03*
%TD*%
D10*
%TO.C,D38*%
X189682352Y-70079475D03*
X189682352Y-66779475D03*
%TD*%
D11*
%TO.C,LED15*%
X21936727Y-28785725D03*
X21936727Y-30285725D03*
X27386727Y-28785725D03*
D12*
X27386727Y-30285725D03*
%TD*%
D14*
%TO.C,C87*%
X195714852Y-108848225D03*
X195714852Y-112148225D03*
%TD*%
D16*
%TO.C,${VALUE}*%
X107789227Y-84145725D03*
X121239227Y-81605725D03*
%TD*%
D11*
%TO.C,LED9*%
X140999227Y-28785725D03*
X140999227Y-30285725D03*
X146449227Y-28785725D03*
D12*
X146449227Y-30285725D03*
%TD*%
D40*
%TO.C,C5*%
X304922397Y-81527028D03*
X304243575Y-82205850D03*
%TD*%
D16*
%TO.C,${VALUE}*%
X17301727Y-22233225D03*
X30751727Y-19693225D03*
%TD*%
D10*
%TO.C,D48*%
X99194852Y-89129475D03*
X99194852Y-85829475D03*
%TD*%
%TO.C,D14*%
X289694852Y-27216975D03*
X289694852Y-23916975D03*
%TD*%
%TO.C,D6*%
X127769852Y-27216975D03*
X127769852Y-23916975D03*
%TD*%
D11*
%TO.C,LED12*%
X83849227Y-28785725D03*
X83849227Y-30285725D03*
X89299227Y-28785725D03*
D12*
X89299227Y-30285725D03*
%TD*%
D17*
%TO.C,LED29*%
X284561727Y-54098225D03*
X284561727Y-52598225D03*
X279111727Y-54098225D03*
D18*
X279111727Y-52598225D03*
%TD*%
D14*
%TO.C,C27*%
X219130477Y-28282600D03*
X219130477Y-31582600D03*
%TD*%
D41*
%TO.C,U1*%
X303187323Y-80458379D03*
X302833769Y-80104825D03*
X302480216Y-79751272D03*
X302126662Y-79397718D03*
X301773109Y-79044165D03*
X301419556Y-78690612D03*
X301066002Y-78337058D03*
X300712449Y-77983505D03*
X300358896Y-77629952D03*
X300005342Y-77276398D03*
X299651789Y-76922845D03*
X299298235Y-76569291D03*
D42*
X299298235Y-74571715D03*
X299651789Y-74218161D03*
X300005342Y-73864608D03*
X300358896Y-73511054D03*
X300712449Y-73157501D03*
X301066002Y-72803948D03*
X301419556Y-72450394D03*
X301773109Y-72096841D03*
X302126662Y-71743288D03*
X302480216Y-71389734D03*
X302833769Y-71036181D03*
X303187323Y-70682627D03*
D41*
X305184899Y-70682627D03*
X305538453Y-71036181D03*
X305892006Y-71389734D03*
X306245560Y-71743288D03*
X306599113Y-72096841D03*
X306952666Y-72450394D03*
X307306220Y-72803948D03*
X307659773Y-73157501D03*
X308013326Y-73511054D03*
X308366880Y-73864608D03*
X308720433Y-74218161D03*
X309073987Y-74571715D03*
D42*
X309073987Y-76569291D03*
X308720433Y-76922845D03*
X308366880Y-77276398D03*
X308013326Y-77629952D03*
X307659773Y-77983505D03*
X307306220Y-78337058D03*
X306952666Y-78690612D03*
X306599113Y-79044165D03*
X306245560Y-79397718D03*
X305892006Y-79751272D03*
X305538453Y-80104825D03*
X305184899Y-80458379D03*
%TD*%
D14*
%TO.C,C58*%
X200477352Y-71145100D03*
X200477352Y-74445100D03*
%TD*%
D16*
%TO.C,${VALUE}*%
X136364227Y-22233225D03*
X149814227Y-19693225D03*
%TD*%
D10*
%TO.C,C101*%
X151661727Y-131595100D03*
X151661727Y-128295100D03*
%TD*%
%TO.C,D5*%
X108719852Y-27216975D03*
X108719852Y-23916975D03*
%TD*%
D16*
%TO.C,${VALUE}*%
X160176727Y-65095725D03*
X173626727Y-62555725D03*
%TD*%
D10*
%TO.C,D78*%
X149201102Y-127229475D03*
X149201102Y-123929475D03*
%TD*%
D11*
%TO.C,LED45*%
X26699227Y-71648225D03*
X26699227Y-73148225D03*
X32149227Y-71648225D03*
D12*
X32149227Y-73148225D03*
%TD*%
D17*
%TO.C,LED28*%
X255986727Y-54098225D03*
X255986727Y-52598225D03*
X250536727Y-54098225D03*
D18*
X250536727Y-52598225D03*
%TD*%
D43*
%TO.C,MX45_1*%
X34345477Y-79325725D03*
X36885477Y-92775725D03*
%TD*%
D10*
%TO.C,D80*%
X218257352Y-127229475D03*
X218257352Y-123929475D03*
%TD*%
D16*
%TO.C,${VALUE}*%
X312576727Y-103195725D03*
X326026727Y-100655725D03*
%TD*%
D17*
%TO.C,LED24*%
X179786727Y-54098225D03*
X179786727Y-52598225D03*
X174336727Y-54098225D03*
D18*
X174336727Y-52598225D03*
%TD*%
D40*
%TO.C,C6*%
X303334897Y-81527028D03*
X302656075Y-82205850D03*
%TD*%
D14*
%TO.C,C34*%
X81017977Y-28282600D03*
X81017977Y-31582600D03*
%TD*%
%TO.C,C62*%
X124277352Y-71145100D03*
X124277352Y-74445100D03*
%TD*%
%TO.C,C23*%
X314380477Y-28282600D03*
X314380477Y-31582600D03*
%TD*%
%TO.C,C94*%
X62364852Y-108848225D03*
X62364852Y-112148225D03*
%TD*%
D10*
%TO.C,D46*%
X61094852Y-89129475D03*
X61094852Y-85829475D03*
%TD*%
D14*
%TO.C,C64*%
X86177352Y-71145100D03*
X86177352Y-74445100D03*
%TD*%
M02*
