%TF.GenerationSoftware,KiCad,Pcbnew,8.0.4*%
%TF.CreationDate,2024-09-06T17:24:34+02:00*%
%TF.ProjectId,kicad8,6b696361-6438-42e6-9b69-6361645f7063,rev?*%
%TF.SameCoordinates,Original*%
%TF.FileFunction,Soldermask,Top*%
%TF.FilePolarity,Negative*%
%FSLAX46Y46*%
G04 Gerber Fmt 4.6, Leading zero omitted, Abs format (unit mm)*
G04 Created by KiCad (PCBNEW 8.0.4) date 2024-09-06 17:24:34*
%MOMM*%
%LPD*%
G01*
G04 APERTURE LIST*
%ADD10C,3.987800*%
%ADD11C,1.500000*%
%ADD12C,1.750000*%
%ADD13C,3.300000*%
%ADD14C,0.650000*%
%ADD15O,1.000000X1.600000*%
%ADD16O,1.000000X2.100000*%
G04 APERTURE END LIST*
D10*
%TO.C,SW1*%
X319936727Y-24773225D03*
D11*
X323436727Y-28773225D03*
X323436727Y-26273225D03*
X316436727Y-26273225D03*
X316436727Y-28773225D03*
%TD*%
D10*
%TO.C,S1*%
X269930477Y-56840725D03*
X293742977Y-56840725D03*
%TD*%
%TO.C,S3*%
X96099227Y-133040725D03*
X196111727Y-133040725D03*
%TD*%
%TO.C,S5*%
X134199227Y-133040725D03*
X158011727Y-133040725D03*
%TD*%
%TO.C,S4*%
X93717977Y-133040725D03*
X117530477Y-133040725D03*
%TD*%
%TO.C,S6*%
X174680477Y-133040725D03*
X198492977Y-133040725D03*
%TD*%
%TO.C,S2*%
X267549227Y-94940725D03*
X291361727Y-94940725D03*
%TD*%
D12*
%TO.C,${VALUE}*%
X229766727Y-67635725D03*
D10*
X224686727Y-67635725D03*
D12*
X219606727Y-67635725D03*
D13*
X220876727Y-65095725D03*
X227226727Y-62555725D03*
%TD*%
D12*
%TO.C,${VALUE}*%
X210716727Y-67635725D03*
D10*
X205636727Y-67635725D03*
D12*
X200556727Y-67635725D03*
D13*
X201826727Y-65095725D03*
X208176727Y-62555725D03*
%TD*%
D12*
%TO.C,${VALUE}*%
X291679227Y-67635725D03*
D10*
X286599227Y-67635725D03*
D12*
X281519227Y-67635725D03*
D13*
X282789227Y-65095725D03*
X289139227Y-62555725D03*
%TD*%
D12*
%TO.C,${VALUE}*%
X191666727Y-67635725D03*
D10*
X186586727Y-67635725D03*
D12*
X181506727Y-67635725D03*
D13*
X182776727Y-65095725D03*
X189126727Y-62555725D03*
%TD*%
D12*
%TO.C,${VALUE}*%
X325016727Y-24773225D03*
D10*
X319936727Y-24773225D03*
D12*
X314856727Y-24773225D03*
D13*
X316126727Y-22233225D03*
X322476727Y-19693225D03*
%TD*%
D12*
%TO.C,${VALUE}*%
X177379227Y-86685725D03*
D10*
X172299227Y-86685725D03*
D12*
X167219227Y-86685725D03*
D13*
X168489227Y-84145725D03*
X174839227Y-81605725D03*
%TD*%
D12*
%TO.C,${VALUE}*%
X86891727Y-48585725D03*
D10*
X81811727Y-48585725D03*
D12*
X76731727Y-48585725D03*
D13*
X78001727Y-46045725D03*
X84351727Y-43505725D03*
%TD*%
D12*
%TO.C,${VALUE}*%
X239291727Y-48585725D03*
D10*
X234211727Y-48585725D03*
D12*
X229131727Y-48585725D03*
D13*
X230401727Y-46045725D03*
X236751727Y-43505725D03*
%TD*%
D12*
%TO.C,${VALUE}*%
X234529227Y-86685725D03*
D10*
X229449227Y-86685725D03*
D12*
X224369227Y-86685725D03*
D13*
X225639227Y-84145725D03*
X231989227Y-81605725D03*
%TD*%
D12*
%TO.C,${VALUE}*%
X205954227Y-105735725D03*
D10*
X200874227Y-105735725D03*
D12*
X195794227Y-105735725D03*
D13*
X197064227Y-103195725D03*
X203414227Y-100655725D03*
%TD*%
D12*
%TO.C,${VALUE}*%
X67841727Y-48585725D03*
D10*
X62761727Y-48585725D03*
D12*
X57681727Y-48585725D03*
D13*
X58951727Y-46045725D03*
X65301727Y-43505725D03*
%TD*%
D12*
%TO.C,${VALUE}*%
X148804227Y-105735725D03*
D10*
X143724227Y-105735725D03*
D12*
X138644227Y-105735725D03*
D13*
X139914227Y-103195725D03*
X146264227Y-100655725D03*
%TD*%
D12*
%TO.C,${VALUE}*%
X48791727Y-48585725D03*
D10*
X43711727Y-48585725D03*
D12*
X38631727Y-48585725D03*
D13*
X39901727Y-46045725D03*
X46251727Y-43505725D03*
%TD*%
D12*
%TO.C,${VALUE}*%
X55935477Y-124785725D03*
D10*
X50855477Y-124785725D03*
D12*
X45775477Y-124785725D03*
D13*
X47045477Y-122245725D03*
X53395477Y-119705725D03*
%TD*%
D12*
%TO.C,${VALUE}*%
X282154227Y-129548225D03*
D10*
X277074227Y-129548225D03*
D12*
X271994227Y-129548225D03*
D13*
X273264227Y-127008225D03*
X279614227Y-124468225D03*
%TD*%
D12*
%TO.C,${VALUE}*%
X320254227Y-129548225D03*
D10*
X315174227Y-129548225D03*
D12*
X310094227Y-129548225D03*
D13*
X311364227Y-127008225D03*
X317714227Y-124468225D03*
%TD*%
D12*
%TO.C,${VALUE}*%
X291679227Y-24773225D03*
D10*
X286599227Y-24773225D03*
D12*
X281519227Y-24773225D03*
D13*
X282789227Y-22233225D03*
X289139227Y-19693225D03*
%TD*%
D12*
%TO.C,${VALUE}*%
X301204227Y-129548225D03*
D10*
X296124227Y-129548225D03*
D12*
X291044227Y-129548225D03*
D13*
X292314227Y-127008225D03*
X298664227Y-124468225D03*
%TD*%
D12*
%TO.C,${VALUE}*%
X325016727Y-67635725D03*
D10*
X319936727Y-67635725D03*
D12*
X314856727Y-67635725D03*
D13*
X316126727Y-65095725D03*
X322476727Y-62555725D03*
%TD*%
D12*
%TO.C,${VALUE}*%
X220241727Y-124785725D03*
D10*
X215161727Y-124785725D03*
D12*
X210081727Y-124785725D03*
D13*
X211351727Y-122245725D03*
X217701727Y-119705725D03*
%TD*%
D12*
%TO.C,${VALUE}*%
X301204227Y-110498225D03*
D10*
X296124227Y-110498225D03*
D12*
X291044227Y-110498225D03*
D13*
X292314227Y-107958225D03*
X298664227Y-105418225D03*
%TD*%
D12*
%TO.C,${VALUE}*%
X139279227Y-86685725D03*
D10*
X134199227Y-86685725D03*
D12*
X129119227Y-86685725D03*
D13*
X130389227Y-84145725D03*
X136739227Y-81605725D03*
%TD*%
D14*
%TO.C,J1*%
X299282204Y-20114766D03*
X305062204Y-20114766D03*
D15*
X297852204Y-16464766D03*
D16*
X297852204Y-20644766D03*
D15*
X306492204Y-16464766D03*
D16*
X306492204Y-20644766D03*
%TD*%
D12*
%TO.C,${VALUE}*%
X267866727Y-67635725D03*
D10*
X262786727Y-67635725D03*
D12*
X257706727Y-67635725D03*
D13*
X258976727Y-65095725D03*
X265326727Y-62555725D03*
%TD*%
D12*
%TO.C,${VALUE}*%
X27055477Y-81605725D03*
D10*
X27055477Y-86685725D03*
D12*
X27055477Y-91765725D03*
D13*
X24515477Y-90495725D03*
X21975477Y-84145725D03*
%TD*%
D12*
%TO.C,${VALUE}*%
X32122977Y-124785725D03*
D10*
X27042977Y-124785725D03*
D12*
X21962977Y-124785725D03*
D13*
X23232977Y-122245725D03*
X29582977Y-119705725D03*
%TD*%
D12*
%TO.C,${VALUE}*%
X110704227Y-105735725D03*
D10*
X105624227Y-105735725D03*
D12*
X100544227Y-105735725D03*
D13*
X101814227Y-103195725D03*
X108164227Y-100655725D03*
%TD*%
D12*
%TO.C,${VALUE}*%
X248816727Y-24773225D03*
D10*
X243736727Y-24773225D03*
D12*
X238656727Y-24773225D03*
D13*
X239926727Y-22233225D03*
X246276727Y-19693225D03*
%TD*%
D12*
%TO.C,${VALUE}*%
X110704227Y-24773225D03*
D10*
X105624227Y-24773225D03*
D12*
X100544227Y-24773225D03*
D13*
X101814227Y-22233225D03*
X108164227Y-19693225D03*
%TD*%
D12*
%TO.C,${VALUE}*%
X210716727Y-24773225D03*
D10*
X205636727Y-24773225D03*
D12*
X200556727Y-24773225D03*
D13*
X201826727Y-22233225D03*
X208176727Y-19693225D03*
%TD*%
D12*
%TO.C,${VALUE}*%
X77366727Y-67635725D03*
D10*
X72286727Y-67635725D03*
D12*
X67206727Y-67635725D03*
D13*
X68476727Y-65095725D03*
X74826727Y-62555725D03*
%TD*%
D12*
%TO.C,${VALUE}*%
X101179227Y-86685725D03*
D10*
X96099227Y-86685725D03*
D12*
X91019227Y-86685725D03*
D13*
X92289227Y-84145725D03*
X98639227Y-81605725D03*
%TD*%
D12*
%TO.C,${VALUE}*%
X258341727Y-48585725D03*
D10*
X253261727Y-48585725D03*
D12*
X248181727Y-48585725D03*
D13*
X249451727Y-46045725D03*
X255801727Y-43505725D03*
%TD*%
D12*
%TO.C,${VALUE}*%
X53554227Y-24773225D03*
D10*
X48474227Y-24773225D03*
D12*
X43394227Y-24773225D03*
D13*
X44664227Y-22233225D03*
X51014227Y-19693225D03*
%TD*%
D12*
%TO.C,${VALUE}*%
X258341727Y-124785725D03*
D10*
X253261727Y-124785725D03*
D12*
X248181727Y-124785725D03*
D13*
X249451727Y-122245725D03*
X255801727Y-119705725D03*
%TD*%
D12*
%TO.C,${VALUE}*%
X96416727Y-67635725D03*
D10*
X91336727Y-67635725D03*
D12*
X86256727Y-67635725D03*
D13*
X87526727Y-65095725D03*
X93876727Y-62555725D03*
%TD*%
D12*
%TO.C,${VALUE}*%
X124991727Y-48585725D03*
D10*
X119911727Y-48585725D03*
D12*
X114831727Y-48585725D03*
D13*
X116101727Y-46045725D03*
X122451727Y-43505725D03*
%TD*%
D12*
%TO.C,${VALUE}*%
X220241727Y-48585725D03*
D10*
X215161727Y-48585725D03*
D12*
X210081727Y-48585725D03*
D13*
X211351727Y-46045725D03*
X217701727Y-43505725D03*
%TD*%
D12*
%TO.C,${VALUE}*%
X182141727Y-48585725D03*
D10*
X177061727Y-48585725D03*
D12*
X171981727Y-48585725D03*
D13*
X173251727Y-46045725D03*
X179601727Y-43505725D03*
%TD*%
D12*
%TO.C,${VALUE}*%
X110704227Y-124785725D03*
D10*
X105624227Y-124785725D03*
D12*
X100544227Y-124785725D03*
D13*
X101814227Y-122245725D03*
X108164227Y-119705725D03*
%TD*%
D12*
%TO.C,${VALUE}*%
X29741727Y-48585725D03*
D10*
X24661727Y-48585725D03*
D12*
X19581727Y-48585725D03*
D13*
X20851727Y-46045725D03*
X27201727Y-43505725D03*
%TD*%
D12*
%TO.C,${VALUE}*%
X163091727Y-48585725D03*
D10*
X158011727Y-48585725D03*
D12*
X152931727Y-48585725D03*
D13*
X154201727Y-46045725D03*
X160551727Y-43505725D03*
%TD*%
D12*
%TO.C,${VALUE}*%
X325016727Y-48585725D03*
D10*
X319936727Y-48585725D03*
D12*
X314856727Y-48585725D03*
D13*
X316126727Y-46045725D03*
X322476727Y-43505725D03*
%TD*%
D12*
%TO.C,${VALUE}*%
X53554227Y-105735725D03*
D10*
X48474227Y-105735725D03*
D12*
X43394227Y-105735725D03*
D13*
X44664227Y-103195725D03*
X51014227Y-100655725D03*
%TD*%
D12*
%TO.C,${VALUE}*%
X115466727Y-67635725D03*
D10*
X110386727Y-67635725D03*
D12*
X105306727Y-67635725D03*
D13*
X106576727Y-65095725D03*
X112926727Y-62555725D03*
%TD*%
D12*
%TO.C,${VALUE}*%
X267866727Y-24773225D03*
D10*
X262786727Y-24773225D03*
D12*
X257706727Y-24773225D03*
D13*
X258976727Y-22233225D03*
X265326727Y-19693225D03*
%TD*%
D12*
%TO.C,${VALUE}*%
X129754227Y-105735725D03*
D10*
X124674227Y-105735725D03*
D12*
X119594227Y-105735725D03*
D13*
X120864227Y-103195725D03*
X127214227Y-100655725D03*
%TD*%
D12*
%TO.C,${VALUE}*%
X325016727Y-86685725D03*
D10*
X319936727Y-86685725D03*
D12*
X314856727Y-86685725D03*
D13*
X316126727Y-84145725D03*
X322476727Y-81605725D03*
%TD*%
D12*
%TO.C,${VALUE}*%
X270247977Y-105735725D03*
D10*
X265167977Y-105735725D03*
D12*
X260087977Y-105735725D03*
D13*
X261357977Y-103195725D03*
X267707977Y-100655725D03*
%TD*%
D12*
%TO.C,${VALUE}*%
X253579227Y-86685725D03*
D10*
X248499227Y-86685725D03*
D12*
X243419227Y-86685725D03*
D13*
X244689227Y-84145725D03*
X251039227Y-81605725D03*
%TD*%
D12*
%TO.C,${VALUE}*%
X225004227Y-105735725D03*
D10*
X219924227Y-105735725D03*
D12*
X214844227Y-105735725D03*
D13*
X216114227Y-103195725D03*
X222464227Y-100655725D03*
%TD*%
D12*
%TO.C,${VALUE}*%
X91654227Y-24773225D03*
D10*
X86574227Y-24773225D03*
D12*
X81494227Y-24773225D03*
D13*
X82764227Y-22233225D03*
X89114227Y-19693225D03*
%TD*%
D12*
%TO.C,${VALUE}*%
X72604227Y-24773225D03*
D10*
X67524227Y-24773225D03*
D12*
X62444227Y-24773225D03*
D13*
X63714227Y-22233225D03*
X70064227Y-19693225D03*
%TD*%
D12*
%TO.C,${VALUE}*%
X191666727Y-124785725D03*
D10*
X186586727Y-124785725D03*
D12*
X181506727Y-124785725D03*
D13*
X182776727Y-122245725D03*
X189126727Y-119705725D03*
%TD*%
D12*
%TO.C,${VALUE}*%
X79747977Y-124785725D03*
D10*
X74667977Y-124785725D03*
D12*
X69587977Y-124785725D03*
D13*
X70857977Y-122245725D03*
X77207977Y-119705725D03*
%TD*%
D12*
%TO.C,${VALUE}*%
X186904227Y-105735725D03*
D10*
X181824227Y-105735725D03*
D12*
X176744227Y-105735725D03*
D13*
X178014227Y-103195725D03*
X184364227Y-100655725D03*
%TD*%
D12*
%TO.C,${VALUE}*%
X58316727Y-67635725D03*
D10*
X53236727Y-67635725D03*
D12*
X48156727Y-67635725D03*
D13*
X49426727Y-65095725D03*
X55776727Y-62555725D03*
%TD*%
D12*
%TO.C,${VALUE}*%
X191666727Y-24773225D03*
D10*
X186586727Y-24773225D03*
D12*
X181506727Y-24773225D03*
D13*
X182776727Y-22233225D03*
X189126727Y-19693225D03*
%TD*%
D12*
%TO.C,${VALUE}*%
X105941727Y-48585725D03*
D10*
X100861727Y-48585725D03*
D12*
X95781727Y-48585725D03*
D13*
X97051727Y-46045725D03*
X103401727Y-43505725D03*
%TD*%
D12*
%TO.C,${VALUE}*%
X63079227Y-86685725D03*
D10*
X57999227Y-86685725D03*
D12*
X52919227Y-86685725D03*
D13*
X54189227Y-84145725D03*
X60539227Y-81605725D03*
%TD*%
D12*
%TO.C,${VALUE}*%
X286916727Y-48585725D03*
D10*
X281836727Y-48585725D03*
D12*
X276756727Y-48585725D03*
D13*
X278026727Y-46045725D03*
X284376727Y-43505725D03*
%TD*%
D12*
%TO.C,${VALUE}*%
X229766727Y-24773225D03*
D10*
X224686727Y-24773225D03*
D12*
X219606727Y-24773225D03*
D13*
X220876727Y-22233225D03*
X227226727Y-19693225D03*
%TD*%
D12*
%TO.C,${VALUE}*%
X151185477Y-124785725D03*
D10*
X146105477Y-124785725D03*
D12*
X141025477Y-124785725D03*
D13*
X142295477Y-122245725D03*
X148645477Y-119705725D03*
%TD*%
D12*
%TO.C,${VALUE}*%
X172616727Y-24773225D03*
D10*
X167536727Y-24773225D03*
D12*
X162456727Y-24773225D03*
D13*
X163726727Y-22233225D03*
X170076727Y-19693225D03*
%TD*%
D12*
%TO.C,${VALUE}*%
X153566727Y-67635725D03*
D10*
X148486727Y-67635725D03*
D12*
X143406727Y-67635725D03*
D13*
X144676727Y-65095725D03*
X151026727Y-62555725D03*
%TD*%
D12*
%TO.C,${VALUE}*%
X134516727Y-67635725D03*
D10*
X129436727Y-67635725D03*
D12*
X124356727Y-67635725D03*
D13*
X125626727Y-65095725D03*
X131976727Y-62555725D03*
%TD*%
D12*
%TO.C,${VALUE}*%
X239291727Y-124785725D03*
D10*
X234211727Y-124785725D03*
D12*
X229131727Y-124785725D03*
D13*
X230401727Y-122245725D03*
X236751727Y-119705725D03*
%TD*%
D12*
%TO.C,${VALUE}*%
X284535477Y-86685725D03*
D10*
X279455477Y-86685725D03*
D12*
X274375477Y-86685725D03*
D13*
X275645477Y-84145725D03*
X281995477Y-81605725D03*
%TD*%
D12*
%TO.C,${VALUE}*%
X196429227Y-86685725D03*
D10*
X191349227Y-86685725D03*
D12*
X186269227Y-86685725D03*
D13*
X187539227Y-84145725D03*
X193889227Y-81605725D03*
%TD*%
D12*
%TO.C,${VALUE}*%
X167854227Y-105735725D03*
D10*
X162774227Y-105735725D03*
D12*
X157694227Y-105735725D03*
D13*
X158964227Y-103195725D03*
X165314227Y-100655725D03*
%TD*%
D12*
%TO.C,${VALUE}*%
X244054227Y-105735725D03*
D10*
X238974227Y-105735725D03*
D12*
X233894227Y-105735725D03*
D13*
X235164227Y-103195725D03*
X241514227Y-100655725D03*
%TD*%
D12*
%TO.C,${VALUE}*%
X201191727Y-48585725D03*
D10*
X196111727Y-48585725D03*
D12*
X191031727Y-48585725D03*
D13*
X192301727Y-46045725D03*
X198651727Y-43505725D03*
%TD*%
D12*
%TO.C,${VALUE}*%
X248816727Y-67635725D03*
D10*
X243736727Y-67635725D03*
D12*
X238656727Y-67635725D03*
D13*
X239926727Y-65095725D03*
X246276727Y-62555725D03*
%TD*%
D12*
%TO.C,${VALUE}*%
X144041727Y-48585725D03*
D10*
X138961727Y-48585725D03*
D12*
X133881727Y-48585725D03*
D13*
X135151727Y-46045725D03*
X141501727Y-43505725D03*
%TD*%
D12*
%TO.C,${VALUE}*%
X129754227Y-24773225D03*
D10*
X124674227Y-24773225D03*
D12*
X119594227Y-24773225D03*
D13*
X120864227Y-22233225D03*
X127214227Y-19693225D03*
%TD*%
D12*
%TO.C,${VALUE}*%
X32122977Y-105735725D03*
D10*
X27042977Y-105735725D03*
D12*
X21962977Y-105735725D03*
D13*
X23232977Y-103195725D03*
X29582977Y-100655725D03*
%TD*%
D12*
%TO.C,${VALUE}*%
X34504227Y-67635725D03*
D10*
X29424227Y-67635725D03*
D12*
X24344227Y-67635725D03*
D13*
X25614227Y-65095725D03*
X31964227Y-62555725D03*
%TD*%
D12*
%TO.C,${VALUE}*%
X215479227Y-86685725D03*
D10*
X210399227Y-86685725D03*
D12*
X205319227Y-86685725D03*
D13*
X206589227Y-84145725D03*
X212939227Y-81605725D03*
%TD*%
D12*
%TO.C,${VALUE}*%
X72604227Y-105735725D03*
D10*
X67524227Y-105735725D03*
D12*
X62444227Y-105735725D03*
D13*
X63714227Y-103195725D03*
X70064227Y-100655725D03*
%TD*%
D12*
%TO.C,${VALUE}*%
X158329227Y-86685725D03*
D10*
X153249227Y-86685725D03*
D12*
X148169227Y-86685725D03*
D13*
X149439227Y-84145725D03*
X155789227Y-81605725D03*
%TD*%
D12*
%TO.C,${VALUE}*%
X91654227Y-105735725D03*
D10*
X86574227Y-105735725D03*
D12*
X81494227Y-105735725D03*
D13*
X82764227Y-103195725D03*
X89114227Y-100655725D03*
%TD*%
D12*
%TO.C,${VALUE}*%
X82129227Y-86685725D03*
D10*
X77049227Y-86685725D03*
D12*
X71969227Y-86685725D03*
D13*
X73239227Y-84145725D03*
X79589227Y-81605725D03*
%TD*%
D12*
%TO.C,${VALUE}*%
X120229227Y-86685725D03*
D10*
X115149227Y-86685725D03*
D12*
X110069227Y-86685725D03*
D13*
X111339227Y-84145725D03*
X117689227Y-81605725D03*
%TD*%
D12*
%TO.C,${VALUE}*%
X29741727Y-24773225D03*
D10*
X24661727Y-24773225D03*
D12*
X19581727Y-24773225D03*
D13*
X20851727Y-22233225D03*
X27201727Y-19693225D03*
%TD*%
D12*
%TO.C,${VALUE}*%
X148804227Y-24773225D03*
D10*
X143724227Y-24773225D03*
D12*
X138644227Y-24773225D03*
D13*
X139914227Y-22233225D03*
X146264227Y-19693225D03*
%TD*%
D12*
%TO.C,${VALUE}*%
X172616727Y-67635725D03*
D10*
X167536727Y-67635725D03*
D12*
X162456727Y-67635725D03*
D13*
X163726727Y-65095725D03*
X170076727Y-62555725D03*
%TD*%
D12*
%TO.C,MX45_1*%
X31805477Y-91765725D03*
D10*
X31805477Y-86685725D03*
D12*
X31805477Y-81605725D03*
D13*
X34345477Y-82875725D03*
X36885477Y-89225725D03*
%TD*%
D12*
%TO.C,${VALUE}*%
X325016727Y-105735725D03*
D10*
X319936727Y-105735725D03*
D12*
X314856727Y-105735725D03*
D13*
X316126727Y-103195725D03*
X322476727Y-100655725D03*
%TD*%
M02*
